<?xml version="1.0" standalone="no"?>
<!DOCTYPE svg PUBLIC "-//W3C//DTD SVG 1.1//EN" "http://www.w3.org/Graphics/SVG/1.1/DTD/svg11.dtd" >
<svg>
<metadata>
Created by FontForge 20110222 at Fri Apr 12 02:26:51 2013
 By Orthosie Webmaster
Copyright (c) Typographer Mediengestaltung, 2000. All rights reserved.
</metadata>
<defs>
<font id="ArabellaRegular" horiz-adv-x="376" >
  <font-face 
    font-family="ArabellaRegular"
    font-weight="400"
    font-stretch="normal"
    units-per-em="1000"
    panose-1="2 0 5 5 2 0 0 2 0 2"
    ascent="800"
    descent="-200"
    x-height="242"
    cap-height="739"
    bbox="-136 -261 1395 966"
    underline-thickness="50"
    underline-position="-25"
    unicode-range="U+0005-E003"
  />
<missing-glyph horiz-adv-x="500" 
d="M63 0h375v966h-375v-966zM125 63v841h250v-841h-250z" />
    <glyph glyph-name=".notdef" horiz-adv-x="500" 
d="M63 0h375v966h-375v-966zM125 63v841h250v-841h-250z" />
    <glyph glyph-name=".null" unicode="&#xe000;" horiz-adv-x="0" 
 />
    <glyph glyph-name="nonmarkingreturn" unicode="&#xe001;" horiz-adv-x="250" 
 />
    <glyph glyph-name="breve" horiz-adv-x="309" 
d="M439 740l-5 10l-43 -16q-14 -21 -28 -35q-35 -35 -63 -35q-27 0 -47 35q-26 45 -36 51l-4 -10q8 -13 16 -67q10 -78 60 -78q53 0 88 56q51 81 62 89z" />
    <glyph glyph-name="ring" horiz-adv-x="230" 
d="M309 499q0 32 -23 55t-55 23q-40 0 -65 -27.5t-25 -67.5q0 -35 21.5 -58.5t55.5 -23.5q40 0 65.5 29.5t25.5 69.5zM285 499q0 -27 -21.5 -48t-48.5 -21q-44 0 -44 49q0 13 4.5 25.5t12.5 22.5t19 16t23 6q21 0 38 -14.5t17 -35.5z" />
    <glyph glyph-name="caron" horiz-adv-x="309" 
d="M439 740l-5 10l-43 -16l-92 -70q-32 54 -82 86l-4 -10q10 -16 19 -34.5t18 -39.5q11 -26 18 -43t11 -27h20q66 83 140 144z" />
    <glyph glyph-name="dotlessi" unicode="&#xd;" horiz-adv-x="204" 
d="M264 84q-16 -6 -31 -11.5t-29 -10.5q-51 -17 -85 -17l84 213h-58l-95 -219q-2 -6 -2 -7q0 -13 20 -24q71 15 103 28q52 19 93 48z" />
    <glyph glyph-name="fraction" horiz-adv-x="156" 
d="M273 740h-44l-339 -740h41z" />
    <glyph glyph-name="fi" horiz-adv-x="543" 
d="M554 416q0 29 -31 29q-23 0 -36 -22q-11 -19 -11 -42q0 -34 29 -34q49 0 49 69zM544 84q-16 -6 -31 -11.5t-29 -10.5q-51 -17 -85 -17l84 213h-58l-85 -195l-79 -18l-73 -12l201 481l-16 11q-5 4 -13 4q-17 0 -34 -11l-193 -473l-15 -4q-21 0 -21 56q0 77 69 137l-39 10
q-85 -66 -85 -158q0 -76 66 -82l-73 -198l51 4l76 181l109 29q28 7 62 26l-2 -13q1 -12 5 -16l12 -9q71 15 103 28q52 19 93 48z" />
    <glyph glyph-name="fl" horiz-adv-x="601" 
d="M598 473l-9 6q-12 6 -23 6l-16 -4l-9 -4l-181 -409l-92 -22l-80 -13l201 481l-16 11q-5 4 -13 4q-17 0 -34 -11l-193 -473l-15 -4q-21 0 -21 56q0 77 69 137l-39 10q-85 -66 -85 -158q0 -76 66 -82l-73 -198l51 4l76 181l75 19q37 10 66.5 22.5t52.5 27.5l-2 -13
q0 -29 18 -38q12 -6 45 -6q56 0 155 48l16 21l-55 -22q-57 -24 -95 -22l-22 1z" />
    <glyph glyph-name="Lslash" horiz-adv-x="896" 
d="M945 732q-34 25 -75 25q-144 0 -241 -181q-24 -44 -78 -174l-202 -54l-10 -70l180 48l-45 -95q-8 -17 -21 -39.5t-31 -48.5q-119 36 -225 36q-55 0 -100 -24q-55 -28 -55 -79q0 -78 141 -78q135 0 202 82l178 -64q52 -18 119 -18q64 0 127 20q81 28 91 79l-77 -39
q-36 -18 -91 -18q-115 0 -263 81q64 77 132 227l125 34l11 70l-102 -27l64 143q64 145 128 145q9 0 20 -3l28 -11q15 -6 32 -6q38 0 38 39zM355 80q-32 -24 -83 -37q-46 -13 -91 -13q-114 0 -114 57q0 22 59 40q48 15 77 15q44 0 89 -13q63 -17 63 -49z" />
    <glyph glyph-name="lslash" horiz-adv-x="238" 
d="M266 336l-95 -25l67 162l-9 6q-12 6 -23 6l-16 -4l-9 -4l-83 -186l-93 -25l-4 -56l70 19l-70 -157q-6 -17 -6 -25q0 -29 17 -38q12 -6 45 -6q56 0 155 48l16 21l-55 -22q-57 -24 -95 -22l-22 1l90 220l115 31z" />
    <glyph glyph-name="Zcaron" horiz-adv-x="971" 
d="M986 346l-45 -7q-48 -8 -95 -6l-32 1l118 196q26 44 26 81q0 65 -137 112q-120 41 -243 41q-124 0 -232 -48q-131 -59 -149 -163l61 17q10 79 106 119q78 32 179 32q115 0 220 -33q128 -41 128 -103q0 -28 -43 -110q-50 -94 -98 -133l-98 -2l-124 2l-120 8l-49 -51
q15 -2 28.5 -2.5t25.5 -1.5q88 -5 129 -3l69 1l65 2q16 -4 25 -22q-77 -96 -166 -134q-125 66 -245 66q-73 0 -133 -26q-77 -35 -77 -98q0 -52 57 -70q40 -12 135 -12q126 0 212 81l149 -68q51 -14 111 -14q126 0 227 78l4 22q-92 -66 -208 -66q-124 0 -197 85
q95 67 172 162q32 4 55.5 6t38.5 2q100 11 146 43zM465 84q-95 -50 -208 -50q-56 0 -80 10q-40 16 -40 62q12 74 127 74q53 0 119 -23q82 -28 82 -73zM797 949l-5 10l-43 -16l-92 -70q-32 54 -82 86l-4 -10q10 -16 19 -34.5t18 -39.5q11 -26 18 -43t11 -27h20q66 83 140 144
z" />
    <glyph glyph-name="zcaron" horiz-adv-x="341" 
d="M313 63l-34 -6q-2 0 -6 -0.5t-11 -1.5h-64l-62 1l-27 3l53 43l108 7l3 18l-62 4l84 68q6 6 8 14l6 23h-55q-12 0 -25 0.5t-27 1.5q-32 3 -35 3l-91 3l-19 -40q-2 -5 -5.5 -15t-8.5 -25q24 16 38 20q28 9 68 9q46 0 58 -25l-43 -29l-62 -4l-47 -22l54 -8l-82 -67
q-6 -6 -7 -9l-1 -5l3 -13q3 -7 9 -7l143 -7q37 -2 78 15q45 20 61 51zM354 456l-5 10l-43 -16l-92 -70q-32 54 -82 86l-4 -10q10 -16 19 -34.5t18 -39.5q11 -26 18 -43t11 -27h20q66 83 140 144z" />
    <glyph glyph-name="space" unicode=" " horiz-adv-x="373" 
 />
    <glyph glyph-name="exclam" unicode="!" horiz-adv-x="162" 
d="M289 730l-86 -54l-119 -510h18q49 137 95.5 277t91.5 287zM119 45q0 21 -12.5 36t-32.5 15q-11 0 -20 -6t-15.5 -15t-10.5 -20.5t-4 -22.5q0 -43 50 -43q45 0 45 56z" />
    <glyph glyph-name="quotedbl" unicode="&#x22;" horiz-adv-x="230" 
d="M363 679q0 48 -45 48q-16 0 -30 -15.5t-13 -31.5q0 -12 9.5 -23t20.5 -11q12 1 21 10l1 -8q-5 -33 -46 -64l12 -21q25 15 48 51q22 35 22 65zM254 679q0 19 -13.5 34.5t-31.5 15.5q-19 0 -31 -17.5t-12 -37.5q0 -25 26 -25q17 2 25 11l1 -8q0 -37 -48 -64l19 -18
q65 44 65 109z" />
    <glyph glyph-name="numbersign" unicode="#" horiz-adv-x="498" 
d="M572 459h-107l51 205h-49l-49 -205h-129l53 205h-49l-49 -205h-123l-12 -49h125l-41 -162h-117l-12 -49h122l-51 -200h43l52 200h131l-56 -200h47l52 200h110l13 49h-113l43 162h102zM408 406l-41 -162h-129l43 162h127z" />
    <glyph glyph-name="dollar" unicode="$" horiz-adv-x="689" 
d="M773 732q-15 7 -29 8q-25 4 -39 5.5t-18 1.5l-29 -3l-15 -2l39 117h-51l-41 -127q-66 -18 -143 -77q-89 -69 -89 -126q0 -33 48 -61q14 -8 36 -19l54 -27l-119 -375l-10 -2q-13 -2 -25.5 -3.5t-26.5 -1.5q-62 0 -120 30q-62 33 -88 84l-58 -33q84 -130 258 -124l29 1
l27 2l-45 -140h51l47 142q113 25 200 95q105 85 105 187q0 65 -53 115q-32 29 -109 70l66 211l19 3l19 1l45 -7l11 -3q22 4 38 20.5t16 37.5zM574 674l-58 -188q-42 20 -57 35q-24 24 -24 54q0 39 51 71q44 28 88 28zM660 238q0 -83 -86 -143q-73 -52 -144 -52l107 357
q123 -60 123 -162z" />
    <glyph glyph-name="percent" unicode="%" horiz-adv-x="840" 
d="M515 578q-31 -12 -64 -18l18 24q18 30 18 60q0 16 -9.5 31t-25.5 15q-32 0 -54 -23t-22 -55q0 -30 16 -56q-40 -28 -96 -28q-69 0 -69 67q0 56 54 101q47 40 86 40q17 0 49 -12l31 -12l10 -2q33 4 33 28q-44 26 -103 26q-74 0 -148 -47q-84 -54 -84 -124q0 -42 29 -65.5
t71 -23.5q58 0 138 18q99 23 122 56zM666 754h-59l-253 -755h60zM857 59q-31 -12 -64 -18l19 32q16 26 16 56q-1 7 -4.5 15.5t-8 15.5t-10.5 11.5t-12 4.5q-32 0 -53.5 -25t-21.5 -58q0 -30 16 -56q-38 -27 -90 -27q-30 0 -51.5 16t-21.5 45q0 60 45 102t105 42q37 0 68 -22
l10 -2q33 4 33 28q-29 18 -41 21q-22 5 -62 5q-77 0 -150 -46q-82 -52 -82 -125q0 -20 8.5 -36t22.5 -27.5t32.5 -17.5t39.5 -6q54 0 137 19q102 24 120 53zM466 639q0 -41 -31 -50q-15 9 -15 29q0 19 7 34q9 22 23 22q16 -1 16 -35zM808 120q0 -41 -31 -50q-15 9 -15 29
q0 13 10 34q10 22 20 22q16 -1 16 -35z" />
    <glyph glyph-name="ampersand" unicode="&#x26;" horiz-adv-x="727" 
d="M803 410q0 21 -14 33l-31 -4q15 -15 15 -33q0 -19 -14.5 -35t-33.5 -16h-201q-58 0 -95 -32t-37 -89h36q0 83 73 83q35 0 57.5 -20t22.5 -55q0 -88 -94 -152q-84 -57 -177 -57q-71 0 -119 33q-53 38 -53 107q0 29 12.5 55t42.5 42l125 65q11 6 20.5 22.5t9.5 29.5
q0 19 -38 31q-29 10 -47 16t-24 10q-38 23 -38 66q0 42 68 104q80 71 171 71q53 0 53 -46q0 -65 -69 -104l47 -17l54 95q6 10 6 31q0 33 -28 58q-28 26 -60 26q-92 0 -193 -68q-111 -75 -111 -162q0 -65 76 -90l64 -21l-97 -43q-51 -23 -81 -65q-35 -47 -35 -98
q0 -93 80 -143q68 -41 167 -41q109 0 209 76q107 83 107 188q0 21 -6 42q68 0 116 20q64 27 64 87z" />
    <glyph glyph-name="quotesingle" unicode="'" horiz-adv-x="131" 
d="M224 684q0 50 -47 50q-17 0 -28.5 -16t-11.5 -34q0 -31 30 -31q7 1 13.5 3t12.5 4q-7 -37 -52 -68l19 -16q64 55 64 108z" />
    <glyph glyph-name="parenleft" unicode="(" horiz-adv-x="303" 
d="M402 760l-17 35q-79 -219 -270 -502q-31 -111 -31 -221q0 -103 24 -185l23 -79l29 23q-4 14 -5 38q-9 67 -9 149q0 60 12 144l12 84q178 286 232 514z" />
    <glyph glyph-name="parenright" unicode=")" horiz-adv-x="270" 
d="M300 520q0 133 -36 271l-39 -20q21 -96 21 -177q0 -356 -240 -726l31 -21q263 350 263 673z" />
    <glyph glyph-name="asterisk" unicode="*" horiz-adv-x="293" 
d="M410 684l-15 48l-73 -27l20 82h-47l-2 -82l-68 31l-26 -35l74 -25l-58 -55l33 -39l51 70l35 -72l31 35l-35 61z" />
    <glyph glyph-name="plus" unicode="+" horiz-adv-x="557" 
d="M590 334h-219v240h-64v-244h-186l-25 -59h211v-253h64v253h193z" />
    <glyph glyph-name="comma" unicode="," horiz-adv-x="133" 
d="M121 31q0 54 -44 54q-18 0 -30.5 -15.5t-12.5 -33.5q1 -16 7 -25q9 -9 21 -9q13 1 28 8q0 -46 -53 -66l20 -17q64 43 64 104z" />
    <glyph glyph-name="hyphen" unicode="-" horiz-adv-x="215" 
d="M229 178h-147l-16 -53h147z" />
    <glyph glyph-name="period" unicode="." horiz-adv-x="150" 
d="M132 41q0 40 -43 40q-20 0 -32.5 -13t-12.5 -33q0 -18 13.5 -30t31.5 -12q43 0 43 48z" />
    <glyph glyph-name="slash" unicode="/" horiz-adv-x="152" 
d="M264 740h-45l-172 -740h41z" />
    <glyph glyph-name="zero" unicode="0" horiz-adv-x="375" 
d="M422 248l-4 5q-4 7 -4 17l3 30q1 8 2 15t2 12v24q0 68 -43 68q-45 0 -79 -42q-34 -41 -34 -86q0 -68 58 -68l19 3l8 3q10 -4 17 -14q-20 -58 -75 -113q-62 -62 -116 -62q-68 0 -68 102q0 94 62 195q67 111 143 111q20 0 41 -9q9 9 9 26q-27 13 -53 13q-101 0 -188 -130
q-80 -119 -80 -226q0 -121 113 -121q142 0 238 226q17 5 29 21zM395 300q0 -16 -6 -32l-21 -9q-6 -2 -16 -2q-48 0 -48 50q0 9 4 19t10 18t14 13.5t17 5.5q46 0 46 -63z" />
    <glyph glyph-name="one" unicode="1" horiz-adv-x="264" 
d="M320 471q-17 21 -41 21q-29 0 -52.5 -21.5t-33.5 -50.5l19 6l11 1q27 0 27 -31q0 -40 -63 -164q-71 -141 -150 -233l72 17q85 110 137 213q74 148 74 242z" />
    <glyph glyph-name="two" unicode="2" horiz-adv-x="396" 
d="M439 388q0 55 -31 86.5t-86 31.5q-75 0 -138 -66q-58 -61 -69 -139l59 17q24 76 37 98q29 47 78 47q81 0 81 -86q0 -99 -119 -183q-85 -59 -208 -100l-3 -8l-3 -17l2 -12q76 -62 164 -62q85 0 174 56q8 8 8 21q-81 -27 -144 -27q-68 0 -118 41q58 29 93.5 47.5t49.5 26.5
q82 49 119 91q54 61 54 137z" />
    <glyph glyph-name="three" unicode="3" horiz-adv-x="371" 
d="M423 423q0 38 -26 60.5t-65 22.5q-49 0 -86 -22q-41 -24 -55 -68l47 -4q12 40 56 40q60 0 60 -50q0 -14 -6 -27q-70 -40 -84 -94q68 -62 68 -126q0 -50 -49 -93q-49 -44 -97 -44q-79 0 -79 86v9q-26 0 -51 -9l-11 -4l-3 -8l-3 -18q0 -81 120 -81q83 0 160 59
q81 64 81 146q0 58 -64 118q17 32 47 41q40 16 40 66z" />
    <glyph glyph-name="four" unicode="4" horiz-adv-x="402" 
d="M422 152l-22 -1l-28 1l-30 4l39 119l-8 3l-11 2l-13 -3l-7 -2l-63 -111l-17 -4h-26q-92 0 -92 86q0 44 57 116q45 57 96 99q17 17 17 34q-2 9 -13 9q-14 0 -85 -74q-56 -61 -80 -92q-54 -74 -54 -113q0 -117 164 -117l-47 -119l55 4l51 109q11 0 23 1.5t26 3.5l52 16
l12 14q4 7 4 15z" />
    <glyph glyph-name="five" unicode="5" horiz-adv-x="355" 
d="M439 428l-39 -4q-55 0 -55 60l1 11l2 13l-20 4l-101 -102q-43 -43 -43 -111l106 -92q6 -4 9 -23q5 -15 5 -31q0 -45 -24 -79q-26 -39 -69 -39q-24 0 -42.5 9.5t-32 25.5t-20.5 37.5t-7 45.5q0 44 20 93l-59 -21q-21 -48 -21 -87q0 -48 26 -92q28 -49 75 -49q83 0 148 57
q65 59 65 141q0 45 -15 59l-110 92l17 38l22 38l37 -31q18 -15 43 -15q29 0 53 11q29 14 29 41z" />
    <glyph glyph-name="six" unicode="6" horiz-adv-x="355" 
d="M397 468q-1 5 -7 9q-9 3 -23 3q-133 -56 -215 -138q-103 -102 -103 -225q0 -127 113 -127q87 0 155 72q69 72 69 160q0 52 -37 88q-36 36 -88 33l-17 -1l-55 -55l19 4q5 1 9.5 1.5t9.5 0.5q49 0 81 -31t32 -80q0 -56 -34 -100q-38 -48 -91 -48q-51 0 -79 31.5t-28 82.5
q0 78 76 170q89 108 205 129q8 8 8 21z" />
    <glyph glyph-name="seven" unicode="7" horiz-adv-x="375" 
d="M418 227q-29 7 -74 7l58 135q5 13 5 36q0 44 -75 67q-51 16 -111 16q-33 0 -59 -23l-47 -41q39 17 86 17q36 0 79 -13q58 -16 58 -42l-4 -17l-55 -127l-24 1q-11 1 -24 -0.5t-27 -3.5q-80 -13 -132 -59l45 9q53 11 104 9l31 -1l-113 -202l56 -4l110 197q48 13 105 13z
" />
    <glyph glyph-name="eight" unicode="8" horiz-adv-x="355" 
d="M422 395q0 45 -40 73q-35 25 -83 25l-8 -18q-53 -6 -91 -35q-44 -33 -44 -83q0 -53 47 -97q-66 -10 -110 -48q-48 -42 -48 -107q0 -113 141 -113q76 0 126 39q53 44 53 119q0 71 -52 116q22 6 42 19t35 30t23.5 37.5t8.5 42.5zM370 375q0 -34 -24.5 -56.5t-58.5 -22.5
q-70 0 -70 74q0 31 29 52q26 20 58 20q27 0 46.5 -20t19.5 -47zM315 126q0 -48 -29.5 -80t-77.5 -32q-42 0 -71 26.5t-29 68.5q0 45 34 82q31 34 75 51q42 -11 70 -42.5t28 -73.5z" />
    <glyph glyph-name="nine" unicode="9" horiz-adv-x="350" 
d="M409 346q0 55 -26 93q-30 44 -82 44q-87 0 -157 -73q-69 -72 -69 -160q0 -55 25 -90q28 -40 80 -40q22 0 43 7l24 21l19 22q-150 0 -150 117q0 53 41 99q40 45 94 45q91 0 91 -115q0 -107 -87 -195q-78 -81 -189 -107q0 -18 10 -25q126 34 224 129q109 106 109 228z" />
    <glyph glyph-name="colon" unicode=":" horiz-adv-x="172" 
d="M173 202q0 40 -41 40q-20 0 -32.5 -14t-12.5 -34q0 -43 41 -43q20 0 32.5 15.5t12.5 35.5zM138 39q0 18 -11 31t-28 13q-49 0 -49 -50q0 -19 12 -31.5t31 -12.5t32 15.5t13 34.5z" />
    <glyph glyph-name="semicolon" unicode=";" horiz-adv-x="176" 
d="M174 197q0 16 -10.5 28t-25.5 12q-53 0 -53 -54q0 -34 39 -34q50 0 50 48zM140 25q0 20 -12 35.5t-31 15.5q-18 0 -32 -13t-14 -31q0 -15 10 -26t24 -11q9 0 22 5q-26 -67 -82 -108l6 -18q109 85 109 151z" />
    <glyph glyph-name="less" unicode="&#x3c;" horiz-adv-x="244" 
d="M254 252h-55l-123 -96l72 -133l47 18l-68 121z" />
    <glyph glyph-name="equal" unicode="=" horiz-adv-x="465" 
d="M510 391h-379l-18 -51h367zM473 232h-360l-25 -46h359z" />
    <glyph glyph-name="greater" unicode="&#x3e;" horiz-adv-x="225" 
d="M227 135l-69 125l-56 -26l58 -111l-113 -100h51z" />
    <glyph glyph-name="question" unicode="?" horiz-adv-x="313" 
d="M408 504q0 42 -29 69.5t-71 27.5q-49 0 -104 -48q-49 -43 -69 -94l10 -31q16 37 58 78q52 49 103 49q41 0 41 -29q0 -25 -61 -95l-113 -131q-60 -71 -60 -130q0 -19 8 -37h35q-8 13 -8 25q0 38 68 100l125 113q67 61 67 133zM149 36q0 45 -42 45q-46 0 -46 -51
q0 -37 48 -37q40 0 40 43z" />
    <glyph glyph-name="at" unicode="@" horiz-adv-x="586" 
d="M609 342q0 152 -171 152q-123 0 -241 -105q-120 -108 -120 -230q0 -75 73 -108q53 -25 139 -25q89 0 252 38l-4 41q-19 -5 -38.5 -9t-39.5 -8q-107 -21 -199 -21q-56 0 -93 22q-45 27 -45 79q0 98 114 190q110 89 210 89q110 0 110 -109q0 -59 -26 -113q-29 -57 -79 -82
l55 129q6 13 6 30l-2 18l-63 -39q-88 -136 -178 -136q-33 0 -33 36q0 61 58 116q49 46 79 46q14 0 40 -9q27 -8 38 -8q17 0 34 7q16 8 17 24q-18 8 -46 13l-28 4h-16q-85 0 -165 -58q-89 -65 -89 -144q0 -58 78 -58q94 0 160 79l-13 -72q15 -5 37 -5q88 0 141 71
q48 64 48 155z" />
    <glyph glyph-name="A" unicode="A" horiz-adv-x="875" 
d="M936 699l-12 8q-10 7 -15 8l-20 -4l-18 -12q-210 -318 -400 -515l-98 25q-49 13 -91 13q-82 0 -124 -64q37 22 85 22q72 0 177 -49q-130 -130 -238 -130q-39 0 -65 26q4 9 4 24q0 19 -12.5 32t-31.5 13q-50 0 -50 -50q0 -42 44 -65q37 -21 82 -21q125 0 300 161
q66 -21 131 -33l-37 -86h66l41 74q46 5 87 13t76 18q94 26 101 51q-22 -8 -40 -14q-62 -17 -122 -15l-36 1l-31 3l229 512l13 37zM783 510l-168 -364l-83 20l-24 6q32 37 95 119l111 146l65 84l2 -4z" />
    <glyph glyph-name="B" unicode="B" horiz-adv-x="963" 
d="M1011 634q0 83 -79 125q-62 33 -153 33q-136 0 -265 -84q-144 -94 -140 -224l1 -28l4 -24l59 11l-1 23q-5 117 95 202q94 82 213 82q65 0 121 -32q67 -37 67 -98q0 -72 -70 -118q-36 -24 -134 -59q-14 -11 -19 -29l45 4q74 0 118 -35q47 -38 47 -111q0 -92 -71 -166
t-163 -74q-103 0 -146 73l-6 3l-11 2q-14 -1 -33 -17l-17 -17q37 -43 58 -55q34 -19 94 -19q134 0 246 74q125 84 125 212q0 124 -126 159q67 52 93 81q48 55 48 106zM794 688l-26 2l-26 -2l-21 -4q-99 -217 -139 -293q-187 -355 -378 -355q-104 0 -104 99q0 52 33 97l61 84
l-6 2l-20 2q-7 0 -14 -3q1 -4 46 -4q-164 -68 -164 -188q0 -126 126 -126q264 0 477 351q46 76 84.5 160t70.5 178z" />
    <glyph glyph-name="C" unicode="C" horiz-adv-x="625" 
d="M723 717q0 26 -51 40q-34 10 -71 10q-197 0 -347 -180q-142 -169 -142 -366q0 -106 63 -167q62 -61 170 -61q91 0 193 49q110 54 148 128q-35 -23 -63 -40t-49 -28q-116 -63 -195 -63q-194 0 -194 209q0 154 94 302q107 167 251 167q64 0 138 -45z" />
    <glyph glyph-name="D" unicode="D" horiz-adv-x="740" 
d="M797 420q0 165 -111 266q-125 113 -316 104l-45 -2l-48 -71q14 2 24.5 3t17.5 2q8 1 15.5 1.5t12.5 0.5h28q182 0 277 -114q78 -95 78 -232q0 -146 -84 -246q-90 -107 -232 -107q-106 0 -183 56q-82 60 -94 163l-9 4l-13 3q-10 -1 -23 -19l-26 -37q24 -103 135 -155
q96 -44 205 -44q168 0 282 129q109 124 109 295zM590 600l-16 8l-15 3q-31 0 -78 -74q-14 -22 -37 -68.5t-56 -118.5q-35 -78 -64 -137.5t-51 -103.5l71 14l102 171q35 65 58.5 109t34.5 69q41 87 51 128z" />
    <glyph glyph-name="E" unicode="E" horiz-adv-x="755" 
d="M799 713q-83 50 -210 50q-116 0 -214 -62q-112 -70 -112 -181q0 -37 6 -55l6 -18q-82 -32 -138 -107q-57 -77 -57 -160q0 -199 268 -199q26 0 48 1t41 3q114 12 206 58q19 10 47.5 26.5t67.5 39.5l6 10q2 4 2 12l-191 -89q-63 -29 -162 -29q-106 0 -173 37
q-86 47 -86 142q0 63 48 135q49 75 109 89q86 -47 185 -47q85 0 150 22q86 29 86 83q0 32 -72 47q-44 9 -97 9q-109 0 -208 -46l-6 6q-10 16 -10 49q0 75 75 134q70 53 148 53q14 0 27.5 -1.5t25.5 -3.5q53 -11 128 -56q21 0 38.5 13.5t17.5 34.5zM657 449q0 -28 -51 -41
q-34 -10 -72 -10q-96 0 -153 61q62 38 151 38q36 0 72 -9q53 -14 53 -39z" />
    <glyph glyph-name="F" unicode="F" horiz-adv-x="670" 
d="M719 707q-30 0 -95 31q-66 32 -120 32q-63 0 -133 -54q-90 -69 -90 -170l4 -45l12 -44l11 -7q8 -5 18 -5q8 1 15 8l14 18q-20 58 -20 80v23q0 61 36 99.5t97 38.5q28 0 97 -34t108 -34l20 2q26 29 26 61zM703 148l-59 -12q-13 -2 -26.5 -3.5t-29.5 -1.5q-42 0 -72 8
l-80 23l185 469h-66l-186 -447q-32 13 -48 18q-45 13 -99 13q-109 0 -169 -78q8 7 20 13.5t26 13.5q31 14 49 14q7 -1 34 -9.5t76 -25.5q32 -11 53.5 -17.5t32.5 -8.5q-34 -108 -85 -176q-71 -95 -161 -95q-48 0 -76 29t-28 77l-50 -14l-2 -7q-5 -18 -5 -22q0 -45 46 -70
q37 -22 85 -22q80 0 145 43q98 65 189 242q29 -7 48.5 -10t29.5 -4l56 -3q11 -1 22.5 0.5t24.5 3.5q61 12 120 59z" />
    <glyph glyph-name="G" unicode="G" horiz-adv-x="753" 
d="M820 697q-47 74 -203 74q-174 0 -331 -146q-165 -155 -165 -343q0 -103 58.5 -163t161.5 -60q182 0 323 129l4 -22l-53 -112q-92 -191 -258 -191q-94 0 -132 68l-7 3l-20 3q-15 -1 -27 -13l-15 -27q91 -64 174 -64q111 0 202 61t139 162l114 241l-41 4
q-42 -46 -79.5 -79.5t-72.5 -56.5q-95 -62 -189 -62q-97 0 -152 50t-55 147q0 139 113 279q125 152 282 152q99 0 169 -67z" />
    <glyph glyph-name="H" unicode="H" horiz-adv-x="953" 
d="M1037 660l-51 18l-265 -520l-274 69l103 185q57 102 100.5 197t74.5 186q-19 10 -30 10l-24 -5l-17 -5q-26 -63 -46 -109.5t-35 -77.5l-90 -182l-94 -180q-5 2 -11.5 3t-14.5 2q-28 5 -68 5q-80 0 -143 -29l-31 -43q42 27 101 27q41 0 85 -12l39 -11q-23 -62 -66 -110
q-53 -60 -108 -60q-68 0 -84 72l-19 3q-40 0 -40 -36q47 -68 118 -68q69 0 144 63q61 52 105 124q35 -4 64.5 -9t52.5 -11q36 -10 79.5 -22.5t95.5 -29.5l-38 -94l63 6l33 66q102 0 254 72l21 26q-87 -43 -228 -43z" />
    <glyph glyph-name="I" unicode="I" horiz-adv-x="809" 
d="M895 654q-31 39 -138 64q-89 21 -156 21q-147 0 -264 -55q-144 -68 -171 -196l70 22q0 97 115 143q84 34 198 34q139 0 258 -62l-181 -359q-131 -257 -311 -257q-78 0 -78 97q0 99 101 218l-72 -11q-91 -157 -91 -232q0 -58 29 -81q26 -20 85 -20q124 0 234 79
q102 72 163 190zM810 72v20q-106 -76 -236 -76l-4 -25q132 0 240 81z" />
    <glyph glyph-name="J" unicode="J" horiz-adv-x="785" 
d="M855 676q0 44 -92 71q-72 20 -127 20q-169 0 -302 -72q-162 -89 -162 -244l49 14q12 120 119 188q94 59 222 59q103 0 208 -40l-282 -617q-112 -18 -217 -79q-119 -69 -119 -130q0 -31 27 -50q25 -17 56 -17q109 0 220 137q10 11 30 39.5t52 73.5l246 47l8 18l-228 -30z
M457 14l-74 -122q-19 -30 -52 -56q-38 -29 -69 -29q-45 0 -45 40q0 65 104 124q86 47 127 47z" />
    <glyph glyph-name="K" unicode="K" horiz-adv-x="1045" 
d="M1096 563q0 33 -33 33l-381 -258l191 371q0 31 -123 48q-39 5 -77 7.5t-75 2.5q-129 0 -256 -82q-143 -92 -138 -214l1 -24l55 18l-3 26q0 108 125 173q103 53 220 53q177 0 177 -45l-106 -221q-80 -168 -173 -276q-134 -156 -270 -156q-110 0 -110 122q0 52 33 111
q28 49 74 90l-81 -22q-30 -40 -55 -99q-28 -63 -28 -108q0 -60 36.5 -92.5t96.5 -32.5q157 0 311 140l126 116q-15 -21 -15 -42q0 -67 41 -128q52 -75 139 -75q61 0 139 38q20 10 50 29t72 47q7 13 7 26q-29 -11 -89 -45q-95 -53 -137 -53q-63 0 -115 75q-40 57 -59 138
q32 54 107 109q121 88 315 168q4 6 5 12z" />
    <glyph glyph-name="L" unicode="L" horiz-adv-x="896" 
d="M945 732q-34 25 -75 25q-114 0 -194 -107q-51 -67 -127 -248q-38 -93 -70 -157.5t-57 -101.5q-119 36 -225 36q-55 0 -100 -24q-55 -28 -55 -79q0 -78 141 -78q135 0 202 82l178 -64q52 -18 119 -18q64 0 127 20q81 28 91 79l-77 -39q-36 -18 -91 -18q-115 0 -263 81
q35 44 70 105.5t72 142.5l108 238q48 106 108 106q9 0 20 -3l28 -11q15 -6 32 -6q38 0 38 39zM355 80q-32 -24 -83 -37q-46 -13 -91 -13q-114 0 -114 57q0 22 59 40q48 15 77 15q44 0 89 -13q63 -17 63 -49z" />
    <glyph glyph-name="M" unicode="M" horiz-adv-x="1010" 
d="M1060 690q0 43 -32 43q-83 0 -161 -124q-115 -182 -160 -367q-32 -42 -71 -78t-85 -68q38 143 95.5 290.5t136.5 302.5l26 51l-9 4l-15 3q-29 0 -45 -9l-17 -9l-139 -309q-26 -57 -96 -146q-185 -234 -300 -234q-64 0 -64 68t48 145q40 64 103 116l18 33l-72 -7
q-158 -137 -158 -294q0 -103 94 -103q105 0 238 125q112 107 168 221l-110 -349l26 -4l210 197l-12 -47q-5 -22 -5 -51q0 -52 17 -75q19 -25 71 -25q108 0 260 114l11 21q-23 -10 -46.5 -21.5t-46.5 -25.5q-92 -53 -135 -53q-21 0 -38 10q-21 10 -21 29q0 35 18 124l17 83
q78 63 172 194q109 149 109 225zM1009 664q2 -43 -61 -143q-27 -43 -58 -83t-66 -77q30 134 95 241q53 86 77 86q10 0 12 -6z" />
    <glyph glyph-name="N" unicode="N" horiz-adv-x="857" 
d="M889 467q0 29 -13 29q-10 -1 -15 -11l-205 -333q-3 -5 -11 -11l-8 -6l8 258q19 32 30 51t15 26q11 20 20 35.5t15 28.5q41 87 41 158q0 46 -41 46q-122 0 -147 -225q-4 -32 -5.5 -79.5t-1.5 -113.5q-29 -43 -52 -75t-42 -54q-127 -148 -246 -148q-100 0 -100 105
q0 117 129 245l-67 -12q-53 -49 -86 -114q-35 -72 -35 -137q0 -125 132 -125q117 0 262 145q16 16 42.5 45t63.5 71l14 -281l45 29l10 76l109 172q43 68 127 156q12 25 12 49zM855 47l-13 12l-49 -21q-23 -7 -41 -11t-31 -6q-16 -7 -22 -24l6 -3l14 -3l10 2zM718 625
q0 -86 -75 -189l-3 87q-1 36 14 93q19 70 50 70q14 -5 14 -61z" />
    <glyph glyph-name="O" unicode="O" horiz-adv-x="879" 
d="M924 391q-22 -14 -55 -14q28 63 28 120q0 83 -64 83q-47 0 -77 -45q-25 -40 -25 -90q0 -103 72 -134q-58 -120 -163 -199q-112 -85 -240 -85q-102 0 -160.5 56.5t-58.5 158.5q0 91 63 207q68 125 169 203q118 92 243 92q10 0 18 -0.5t15 -1.5q48 -8 88 -31q14 -65 56 -65
q44 0 54 40q-72 89 -210 89q-137 0 -267 -75q-130 -73 -211 -192q-88 -127 -88 -268q0 -124 69.5 -190.5t194.5 -66.5q138 0 268 98q116 89 185 224l67 48q21 21 29 38zM895 94l-8 10q-29 -19 -74 -33t-108 -22l-12 -26q101 0 202 71zM870 474q0 -27 -9 -55q-12 -38 -33 -38
q-32 53 -32 99q0 21 10 44q12 29 28 29q36 0 36 -79z" />
    <glyph glyph-name="P" unicode="P" horiz-adv-x="873" 
d="M982 562q0 102 -76 165q-71 59 -175 59q-112 0 -194 -58q-56 -38 -96 -102q-46 -70 -46 -131q0 -38 12 -87l11 -45l51 12l2 6l2 15q-24 49 -24 95q0 99 81 179q82 79 183 79q96 0 149 -62q48 -57 48 -156q0 -77 -28 -140q-36 -83 -103 -83l-22 3q-13 3 -23 9l-29 -50
l19 -9l20 -3q73 0 152 91q86 100 86 213zM925 164l-128 -55q-32 -14 -61 -23t-55 -14l-39 -31q109 0 276 102l1 6zM814 684h-62q-82 -235 -120 -326q-182 -431 -372 -431q-141 0 -141 177q0 100 70 209l-58 -18q-71 -91 -71 -203q0 -197 162 -197q274 0 468 441
q29 66 60 152.5t64 195.5z" />
    <glyph glyph-name="Q" unicode="Q" horiz-adv-x="889" 
d="M961 432l-109 -59q29 52 29 106q0 96 -61 96q-49 0 -82 -43q-32 -43 -32 -93q0 -87 77 -105q8 -8 8 -21q-86 -138 -168 -198q-96 31 -174 31q-35 0 -67 -16q-40 -19 -46 -48q46 37 108 37q64 0 103 -39q-65 -53 -166 -53q-102 0 -155 59.5t-53 162.5q0 159 141 320
q148 171 317 171q42 0 90 -17q13 -27 39 -53q31 -29 56 -29q19 0 35 10.5t16 28.5q-57 92 -244 92q-126 0 -250 -80q-116 -75 -189 -193q-80 -128 -80 -256q0 -119 58 -186q61 -72 178 -72q150 0 240 72q52 -17 93.5 -36.5t72.5 -39.5q94 -64 130 -64l40 5l20 5l11 15
l-13 -1q-33 -3 -77 30q-66 48 -117.5 79.5t-89.5 47.5q72 61 157 199l45 41l91 60zM848 469q0 -60 -33 -93q-48 0 -48 93q0 23 15 49q17 31 38 29q28 -1 28 -78z" />
    <glyph glyph-name="R" unicode="R" horiz-adv-x="1020" 
d="M1071 535q0 103 -85 163q-74 53 -182 53q-141 0 -253 -82q-124 -91 -124 -226q0 -7 1.5 -21t5.5 -35l54 8l-3 16l-1 26q-5 123 85 201q86 74 210 74q95 0 154 -42q66 -47 66 -139q0 -95 -65 -171q-69 -79 -163 -79v51l-76 -39q-17 -59 -17 -109q0 -189 124 -189
q106 0 231 93l4 16q-107 -69 -188 -69q-59 0 -87 42q-26 38 -21 98l3 42l6 39q121 0 218 77q103 82 103 202zM855 666l-8 8q-13 8 -31 8q-16 0 -31 -12l-115 -221q-63 -120 -123 -204q-176 -243 -332 -243q-94 0 -94 120q0 62 35 134q31 64 80 113l-58 -8
q-115 -121 -115 -269q0 -54 30 -90q32 -38 85 -38q202 0 416 259q167 203 261 443z" />
    <glyph glyph-name="S" unicode="S" horiz-adv-x="730" 
d="M773 732q-30 14 -58 14q-92 0 -210 -57q-139 -67 -139 -145q0 -57 77 -98l141 -73q76 -52 76 -133q0 -97 -99 -154q-83 -48 -187 -48q-207 0 -267 116l-58 -33q83 -128 267 -128q143 0 268 83q138 93 138 212q0 81 -75 132l-138 69q-74 38 -74 79q0 59 68 91
q55 26 120 26q21 0 62 -6l34 -5q54 19 54 58z" />
    <glyph glyph-name="T" unicode="T" horiz-adv-x="839" 
d="M949 721q-72 21 -145 21q-170 0 -300 -48q-166 -61 -166 -178l51 15l-1 19q-3 63 135 104q110 32 228 32q34 0 73 -4t84 -12l25 23q9 9 16 28zM860 102l-12 3l-117 -50q-79 -33 -158 -29l-55 3l-17 -25l27 -5l37 -3q105 -9 295 106zM768 646l-59 -1q-40 -91 -73 -161.5
t-60 -121.5q-197 -369 -358 -369q-51 0 -76 45q-20 38 -20 92q0 111 97 220l-67 -16q-84 -99 -84 -226q0 -74 26 -109q32 -41 103 -41q110 0 234 113q111 104 205 266q91 157 132 309z" />
    <glyph glyph-name="U" unicode="U" horiz-adv-x="990" 
d="M1033 572h-62l-230 -355q-29 -44 -152 -119q-134 -80 -210 -80q-85 0 -85 79q0 156 129 321q111 141 278 256q-3 28 -75 44q-53 13 -115 13q-135 0 -218 -44q-107 -57 -107 -181l43 8l-2 23q-6 74 75 122q65 38 154 38q44 0 93 -11q60 -13 80 -41q-152 -74 -274 -227
q-135 -170 -135 -323q0 -62 21 -90q24 -32 83 -32q88 0 212 65q51 28 97 60t88 70q-23 -81 -23 -115q0 -42 12.5 -56.5t52.5 -14.5q98 0 219 88l14 30q-137 -84 -195 -84q-35 0 -35 69q0 49 31 99z" />
    <glyph glyph-name="V" unicode="V" horiz-adv-x="837" 
d="M928 485q0 24 -10 24q-27 0 -150 -141q-58 -66 -107 -127t-91 -118q22 110 22 171q0 13 1.5 41t3.5 71q1 17 1.5 33t0.5 30q0 125 -48 205q-59 98 -176 98q-98 0 -146 -82q-39 -68 -39 -172q0 -141 76 -235l50 22q-20 42 -33.5 73.5t-21.5 54.5q-24 72 -24 133
q0 167 129 167q83 0 132 -109q41 -93 41 -211q0 -60 -3.5 -112t-10.5 -99q-5 -31 -9 -52t-6 -34q-6 -33 -11 -59.5t-9 -46.5l30 8q42 57 71.5 95.5t46.5 60.5q143 177 278 271q12 21 12 40zM857 94l-18 4q-107 -53 -219 -63l-2 -8l-2 -13q128 0 241 80z" />
    <glyph glyph-name="W" unicode="W" horiz-adv-x="1124" 
d="M1203 396h-21q-203 -234 -309 -296q26 90 26 267q0 130 -38 223l-58 -18q14 -67 21.5 -136t7.5 -141q-66 -66 -121.5 -115.5t-103.5 -83.5q20 101 21 151q4 81 5.5 117.5t1.5 28.5q0 137 -39 232q-54 132 -171 132q-110 0 -185 -106q-67 -94 -67 -211q0 -97 52 -167
l37 22q-33 91 -33 187q0 77 38 148q46 84 117 84q110 0 161 -151q35 -105 35 -240q0 -179 -60 -303l21 -25l4 5q5 8 18 20l269 240l2 -27q1 -14 -2.5 -38t-11.5 -58q-7 -31 -14 -55t-14 -41l1 -24l6 -26l92 91l304 258q10 21 10 41zM1148 49l-8 6l-95 -27q-65 -18 -96 -24
l-4 -21q110 0 203 66z" />
    <glyph glyph-name="X" unicode="X" horiz-adv-x="941" 
d="M994 535l-140 -86q-147 -91 -262 -195l-2 27q-4 58 74 207q84 158 182 233l-15 7l-24 6q-14 0 -39 -9l-22 -8q-108 -111 -171 -249q-67 -147 -67 -294l-98 -71q-95 -69 -164 -69q-113 0 -113 128q0 66 42 140q38 68 93 116l-84 -18q-109 -121 -109 -256q0 -65 29 -105
q33 -44 96 -44q129 0 316 148q12 -75 40 -112q36 -46 105 -46q82 0 189 63l101 61l8 18l-138 -69q-67 -34 -124 -34q-117 0 -117 179q64 73 164 142t240 135z" />
    <glyph glyph-name="Y" unicode="Y" horiz-adv-x="967" 
d="M1041 539l-66 -12l-145 -275q-32 -60 -167 -143q-146 -90 -227 -90q-93 0 -93 101q0 131 125 286q105 129 261 231l9 14q4 5 4 15q-101 65 -245 65q-113 0 -208 -53q-119 -68 -111 -165l2 -25l47 22l-1 16q-5 82 81 129q67 36 164 36q56 0 104 -12q74 -18 77 -56
q-144 -73 -254 -216q-119 -158 -119 -307q0 -64 23 -95q25 -34 88 -34q78 0 208 68q54 29 100.5 60t84.5 65l-70 -156q-64 -13 -118.5 -33.5t-102.5 -48.5q-114 -68 -114 -134q0 -26 35 -41q27 -12 57 -12q151 0 303 248l94 20l90 26l12 18q-81 -26 -172 -26l96 209z
M697 -24q-23 -66 -85 -134q-71 -78 -130 -78q-27 0 -36 6q-13 7 -13 32q0 54 116 120q101 58 131 58z" />
    <glyph glyph-name="Z" unicode="Z" horiz-adv-x="971" 
d="M986 346l-45 -7q-48 -8 -95 -6l-32 1l118 196q26 44 26 81q0 65 -137 112q-120 41 -243 41q-124 0 -232 -48q-131 -59 -149 -163l61 17q10 79 106 119q78 32 179 32q115 0 220 -33q128 -41 128 -103q0 -28 -43 -110q-50 -94 -98 -133l-98 -2l-124 2l-120 8l-49 -51
q15 -2 28.5 -2.5t25.5 -1.5q88 -5 129 -3l69 1l65 2q16 -4 25 -22q-77 -96 -166 -134q-125 66 -245 66q-73 0 -133 -26q-77 -35 -77 -98q0 -52 57 -70q40 -12 135 -12q126 0 212 81l149 -68q51 -14 111 -14q126 0 227 78l4 22q-92 -66 -208 -66q-124 0 -197 85
q95 67 172 162q32 4 55.5 6t38.5 2q100 11 146 43zM465 84q-95 -50 -208 -50q-56 0 -80 10q-40 16 -40 62q12 74 127 74q53 0 119 -23q82 -28 82 -73z" />
    <glyph glyph-name="bracketleft" unicode="[" horiz-adv-x="264" 
d="M385 748h-151l-245 -952h148l9 37h-80l227 870h78z" />
    <glyph glyph-name="backslash" unicode="\" horiz-adv-x="689" 
d="M660 2l-418 646h-72l424 -646h66z" />
    <glyph glyph-name="bracketright" unicode="]" horiz-adv-x="303" 
d="M404 771h-144l-12 -44h86l-221 -847h-90l-3 -43h146z" />
    <glyph glyph-name="asciicircum" unicode="^" horiz-adv-x="299" 
d="M392 586q0 12 -3 18l-56 117l-9 7l-10 4q-13 -1 -21 -11l-127 -137l12 -8l13 -4q13 7 29.5 18.5t36.5 28.5l46 39l70 -90l13 7q6 6 6 11z" />
    <glyph glyph-name="underscore" unicode="_" horiz-adv-x="600" 
d="M600 -99v50h-600v-50h600z" />
    <glyph glyph-name="grave" unicode="`" horiz-adv-x="254" 
d="M350 641q-44 18 -64 56l-18 54q-15 34 -37 33q-26 -2 -26 -38q0 -42 46 -81q37 -31 85 -48z" />
    <glyph glyph-name="a" unicode="a" 
d="M388 59h-25l-52 -22l-44 -12l57 135q4 8 4 24l-2 19l-63 -39l-57 -70q-23 -28 -60 -46.5t-72 -18.5q-9 1 -16 14t-7 23q0 53 49 105q50 53 103 53l25 -5q26 -10 38 -10q18 0 35 7q16 8 17 24q-35 20 -66 20q-80 0 -168 -54q-109 -67 -109 -160q0 -20 18.5 -33t39.5 -13
q97 0 179 76l-13 -72q14 -7 39 -7q61 0 150 62z" />
    <glyph glyph-name="b" unicode="b" horiz-adv-x="353" 
d="M353 756l-8 2l-14 2q-33 0 -84 -110l-228 -494q-17 -39 -17 -90q0 -34 30 -52q26 -14 62 -14q93 0 169 55q86 62 86 149q0 27 -33 44q-28 14 -57 14q-69 0 -150 -63zM273 179q0 -56 -46 -108q-45 -51 -100 -51q-65 0 -65 59q0 23 8 44l8 19q9 13 57 48q53 38 74 38
q23 0 43.5 -13.5t20.5 -35.5z" />
    <glyph glyph-name="c" unicode="c" horiz-adv-x="298" 
d="M322 206q0 22 -28 35q-24 11 -47 11q-64 0 -151 -63q-93 -68 -93 -132q0 -61 93 -61q70 0 187 53l15 21l-78 -31q-36 -14 -79 -14q-31 0 -45 8q-17 11 -17 41q0 43 48 94q48 52 91 52q17 -1 26 -5l-4 -20q0 -33 32 -33q50 0 50 44z" />
    <glyph glyph-name="d" unicode="d" horiz-adv-x="447" 
d="M459 514q0 34 -30 34q-19 0 -28 -32l-11 -39l-80 -223l-7 -3l-11 -3q-33 15 -64 15q-74 0 -150 -58q-81 -63 -81 -134q0 -69 95 -69q72 0 120 53q0 -32 11.5 -42t44.5 -10q44 0 87 20l76 36l10 21q-83 -47 -153 -47l164 444q7 18 7 37zM281 192q0 -43 -50 -99
q-55 -61 -113 -61q-43 0 -43 43q0 59 50 109q49 51 109 51q47 0 47 -43z" />
    <glyph glyph-name="e" unicode="e" horiz-adv-x="275" 
d="M293 218q0 24 -25 37q-20 11 -46 11q-54 0 -133 -60q-89 -68 -89 -132q0 -74 88 -74q83 0 185 66q-116 -43 -165 -43q-11 2 -22 15t-14 25l150 62q29 12 50 38t21 55zM223 206q0 -38 -52 -77q-42 -32 -88 -45q0 54 50 107q44 47 72 47q18 -2 18 -32z" />
    <glyph glyph-name="f" unicode="f" horiz-adv-x="365" 
d="M389 514l-16 11q-5 4 -13 4q-17 0 -34 -11l-193 -473l-15 -4q-21 0 -21 56q0 77 69 137l-39 10q-85 -66 -85 -158q0 -76 66 -82l-73 -198l51 4l76 181l108 28q55 15 99 51q-47 -14 -91.5 -23t-89.5 -14z" />
    <glyph glyph-name="g" unicode="g" horiz-adv-x="425" 
d="M415 61l-109 -34l64 153l-60 -4q-96 -142 -192 -142q-45 0 -45 42q0 55 59 103q52 43 93 43q25 0 46 -8q37 -15 43 -15q19 0 39 14l2 10l-2 11q-51 18 -96 18q-81 0 -166 -54q-94 -61 -94 -137q0 -39 23 -53q18 -9 60 -9q93 0 167 75l-29 -83q-77 -41 -97 -54
q-95 -63 -95 -128q0 -44 35 -44q76 0 144 81q51 61 85 149l114 50zM199 -53q0 -29 -38 -91q-42 -69 -78 -69q-9 4 -9 31q0 45 50 93q43 43 65 43q10 -1 10 -7z" />
    <glyph glyph-name="h" unicode="h" horiz-adv-x="390" 
d="M400 68l-71 -25l-60 -22l72 157q7 14 7 30q0 28 -28 28q-24 -3 -117 -58q-37 -22 -66.5 -40t-52.5 -33q18 32 43 83t57 122l123 272l60 135q-11 26 -27 26q-19 0 -32 -9q-19 -54 -102 -230l-158 -334l-81 -170l58 4l25 43q54 46 110.5 83.5t116.5 68.5l-33 -72
q-16 -34 -26 -64.5t-15 -58.5l6 -4q17 -5 35 -5q40 0 100 29l52 27z" />
    <glyph glyph-name="i" unicode="i" horiz-adv-x="204" 
d="M214 416q0 29 -31 29q-23 0 -36 -22q-11 -19 -11 -42q0 -34 29 -34q49 0 49 69zM204 84q-16 -6 -31 -11.5t-29 -10.5q-51 -17 -85 -17l84 213h-58l-94 -219q-2 -20 17 -31q71 15 103 28q52 19 93 48z" />
    <glyph glyph-name="j" unicode="j" horiz-adv-x="233" 
d="M253 415q-2 26 -29 26q-20 0 -32 -19.5t-12 -40.5q4 -39 30 -39q22 0 34 27q10 22 9 46zM224 84q-21 0 -42 -8l-42 -17l73 201h-51l-119 -114l14 -7l62 50l-55 -181q-84 -53 -84 -138q0 -55 33 -55t47 38l59 159l50 40q11 8 24.5 16t30.5 16zM53 -38l-36 -113
q-12 6 -12 25q0 18 11 53q13 39 29 39z" />
    <glyph glyph-name="k" unicode="k" horiz-adv-x="378" 
d="M364 64l-47 -22q-38 -18 -65 -18q-20 0 -37 11q-19 13 -19 33q94 33 118 49q41 26 41 71q0 49 -66 49q-70 0 -173 -85q11 19 30.5 64.5t48.5 118.5l161 409l-6 2l-13 1q-8 -1 -15.5 -3t-15.5 -4l-14 -6q-5 -23 -27.5 -77t-60.5 -141l-227 -510h59l37 88q14 17 33 34
t45 34q58 39 94 39q42 0 42 -37q0 -29 -43 -53q-23 -10 -40.5 -16t-28.5 -9l-8 16l-51 -34q36 -77 101 -77q57 0 139 56z" />
    <glyph glyph-name="l" unicode="l" horiz-adv-x="238" 
d="M238 473l-9 6q-12 6 -23 6l-16 -4l-9 -4l-180 -405q-6 -17 -6 -25q0 -29 17 -38q12 -6 45 -6q56 0 155 48l16 21l-55 -22q-57 -24 -95 -22l-22 1z" />
    <glyph glyph-name="m" unicode="m" horiz-adv-x="532" 
d="M537 43q-27 -9 -76 -21l-51 -12l72 148q16 32 16 50q0 9 -12.5 15t-23.5 6q-7 -1 -43 -28l-64 -47l-94 -60l27 54q15 31 14 59t-27 28q-5 -1 -29 -17l-80 -56l-94 -58l55 121q-6 7 -14 9l-14 5q-8 -1 -15.5 -3.5t-15.5 -6.5l-104 -230l53 7l14 29l201 153l-84 -195l55 6
l17 36l202 149l-59 -127l-8 -23l-3 -22q0 -22 6 -26t31 -4q60 0 148 61z" />
    <glyph glyph-name="n" unicode="n" horiz-adv-x="386" 
d="M382 63l-56 -22q-20 -7 -34.5 -10.5t-22.5 -5.5l76 157q6 12 6 27q0 20 -4.5 25t-24.5 5q-31 0 -53 -14l-178 -120l55 139h-63l-108 -244h44l21 29l233 164l-41 -90q-11 -26 -18.5 -49.5t-9.5 -45.5l7 -3q15 -5 24 -5q45 0 143 43z" />
    <glyph glyph-name="o" unicode="o" horiz-adv-x="351" 
d="M361 59l-65 -18l22 49q11 26 10 52q0 10 -11 22t-21 12q-15 0 -28.5 -7t-23.5 -18t-16 -26t-6 -31q0 -28 16 -57q-37 -26 -85 -26q-77 0 -77 63q0 46 41 96q40 49 87 49q15 0 44 -9l56 -18q31 0 31 27q-14 7 -21 12q-30 14 -58 14q-78 0 -160 -45q-95 -53 -95 -124
q0 -42 28 -65.5t70 -23.5q163 0 262 72zM311 118q0 -42 -30 -48q-17 9 -17 30q0 12 8 33q9 23 21 23q18 0 18 -38z" />
    <glyph glyph-name="p" unicode="p" horiz-adv-x="426" 
d="M410 63q-87 -38 -135 -38l33 74q35 79 35 108q0 34 -35 34q-16 0 -119 -87l-92 -78l10 47q2 7 2.5 11.5t1.5 6.5v28q0 25 -7 46l-7 14l-9 2l-16 2l-14 -2l-8 -2l-2 -6q-5 -17 -5 -25l8 -61l-109 -318h51l71 174q26 37 49 65.5t42 48.5q58 61 120 82l-34 -69
q-31 -62 -31 -120q17 -5 29 -5q53 0 163 52z" />
    <glyph glyph-name="q" unicode="q" horiz-adv-x="385" 
d="M379 213q0 15 -34 27q-27 10 -47 10q-88 0 -185 -54q-113 -63 -113 -142q0 -61 78 -61q82 0 158 56l-131 -273l59 8l39 70q25 45 38 68.5t15 27.5q9 17 15.5 30.5t11.5 21.5q23 45 41 80.5t29 62.5l-55 -8q-24 -46 -72 -79q-51 -36 -100 -36q-29 0 -40 8.5t-11 36.5
q0 54 61 103q61 51 115 51l16 -2q8 -2 16 -2q9 -8 16.5 -13.5t12.5 -8.5q15 -6 29 -6l25 4q13 6 13 20z" />
    <glyph glyph-name="r" unicode="r" horiz-adv-x="252" 
d="M275 224q0 12 -16 16q-22 -11 -40.5 -21t-34.5 -20l-69 -43l29 84q-2 1 -5 2t-7 3l-18 4l-16 -5l-9 -4q-91 -128 -91 -222q2 -16 7 -19t22 -3l76 16l113 31l4 16l-97 -26l-63 -12l-2 20q0 48 60 98q45 37 83 50l-31 -80l64 18q14 16 28 46q14 32 13 51z" />
    <glyph glyph-name="s" unicode="s" horiz-adv-x="257" 
d="M270 261q-5 23 -52 23q-22 0 -56 -27q-28 -23 -45 -46q29 -89 29 -144q0 -35 -44 -35q-35 0 -50 23l-9 40l-1 38l3 35l-62 -37l-3 -18l-1 -17l4 -41l4 -18q32 -38 81 -38q20 0 53 9l38 30q33 27 46 64l-10 61l-19 73l29 -6l29 -11q36 6 36 42z" />
    <glyph glyph-name="t" unicode="t" horiz-adv-x="222" 
d="M234 74l-74 -29q-36 -15 -76 -13l-24 1l68 186l98 11l8 22l-76 8l72 170q-13 8 -25 8q-12 -1 -21 -5l-22 -13l-77 -164q-58 -12 -98 -51l25 4l24 1h7l13 -1l-55 -135q-5 -17 -5 -31q0 -31 10.5 -38.5t43.5 -7.5q66 0 176 56z" />
    <glyph glyph-name="u" unicode="u" 
d="M394 57q-55 -28 -127 -39q22 64 46 117.5t52 98.5h-37l-136 -133q-51 -49 -122 -66q14 42 23.5 67t14.5 36l46 100q-9 4 -21 4q-14 0 -27 -6l-15 -7l-47 -77q-48 -80 -48 -115q0 -25 6 -33t30 -8q33 0 106 46q60 39 96 73l-16 -35q-15 -33 -15 -48l5 -25l4 -14l24 -1
q63 -3 158 65z" />
    <glyph glyph-name="v" unicode="v" horiz-adv-x="266" 
d="M286 219q0 33 -23 39l-46 -41l13 -47q8 -30 8 -43q-69 -82 -131 -88q-2 16 -3 26.5t-2 16.5q-4 29 -5 56t0 50l2 58l-47 4q-5 -20 -6 -36q-4 -22 -5 -43t0 -43l4 -82l4 -40l8 -4l23 -2q45 0 118 61q88 73 88 158z" />
    <glyph glyph-name="w" unicode="w" horiz-adv-x="389" 
d="M405 202l-3 40l-55 -29l12 -48q6 -24 6 -44q-27 -27 -51.5 -46t-46.5 -30l-4 8l-4 17l-9 178l-47 -10l-4 -101q-23 -29 -39 -42l-45 -34l-17 176q-3 15 -20 15q-35 0 -35 -43v-207l9 -2l16 -2q8 0 16 5l119 101l-8 -105l7 -3l7 -1q38 0 105 50q75 58 88 109l2 8z" />
    <glyph glyph-name="x" unicode="x" horiz-adv-x="384" 
d="M390 254q-51 -25 -98 -55.5t-92 -67.5q7 66 47 115q-7 16 -16 16q-46 0 -73 -64q-22 -51 -22 -116v-14l-20 -11q-14 -6 -23 -6q-41 0 -41 54l-55 -25q0 -78 60 -78q48 0 75 41q56 -41 106 -41q63 0 127 53l7 17l-49 -16q-20 -7 -49 -7q-76 0 -70 53q88 62 178 93z" />
    <glyph glyph-name="y" unicode="y" horiz-adv-x="360" 
d="M377 55v25l-131 -66l80 177l-51 -5q-34 -60 -96 -103q-60 -43 -131 -58l84 186q4 8 4 21l-2 12l-2 6q-8 -2 -18.5 -6t-23.5 -11q-29 -15 -34 -26l-71 -193q9 -19 35 -19q53 0 183 85l-49 -124q-172 -76 -172 -170q0 -21 7.5 -27.5t27.5 -6.5q37 0 90 38q45 33 55 55
l50 111zM136 -83q-38 -137 -100 -137q-12 4 -12 29q0 36 46 76q40 36 59 36z" />
    <glyph glyph-name="z" unicode="z" horiz-adv-x="341" 
d="M313 63l-34 -6q-2 0 -6 -0.5t-11 -1.5h-64l-62 1l-27 3l53 43l108 7l3 18l-62 4l84 68q6 6 8 14l6 23h-55q-12 0 -25 0.5t-27 1.5q-32 3 -35 3l-91 3l-19 -40q-2 -5 -5.5 -15t-8.5 -25q24 16 38 20q28 9 68 9q46 0 58 -25l-43 -29l-62 -4l-47 -22l54 -8l-82 -67
q-6 -6 -7 -9l-1 -5l3 -13q3 -7 9 -7l143 -7q37 -2 78 15q45 20 61 51z" />
    <glyph glyph-name="braceleft" unicode="{" horiz-adv-x="342" 
d="M443 699q-26 6 -44.5 10.5t-31.5 6.5h-37q-73 0 -86 -66l-49 -230q-16 -76 -90 -76q58 -31 58 -90l-3 -31l-43 -215l-1 -13q-3 -44 59 -71q49 -21 100 -21l4 32q-32 0 -57 15q-32 18 -26 46l46 217l2 20q0 35 -41 87q69 46 76 80l51 235q4 17 30 28q22 8 43 8l23 -3
l13 -2z" />
    <glyph glyph-name="bar" unicode="|" horiz-adv-x="318" 
d="M291 -11v831h-82v-831h82z" />
    <glyph glyph-name="braceright" unicode="}" horiz-adv-x="391" 
d="M422 291q-35 15 -48 30q-23 25 -19 55l28 222l1 18q3 61 -60 95q-50 27 -117 27v-37q45 -6 64 -19q33 -23 29 -60l-27 -224l-2 -12q0 -54 88 -87q-102 -21 -109 -76l-23 -190q-6 -47 -17 -66q-16 -28 -59 -28l-17 2l-17 3l-8 -37q36 -6 76 -6q110 0 120 82l27 226
q2 16 10 31t20.5 26t28 18t31.5 7z" />
    <glyph glyph-name="asciitilde" unicode="~" horiz-adv-x="328" 
d="M436 637h-24q-20 -37 -23 -40q-9 -6 -20 -6l-63 18q-66 19 -70 19q-33 0 -53 -21t-18 -54l1 -19l22 3l13 33q8 8 22 8l88 -25q41 -11 55 -11q70 0 70 95z" />
    <glyph glyph-name="exclamdown" unicode="&#xa1;" horiz-adv-x="162" 
d="M288 560q0 44 -50 44q-45 0 -45 -57q0 -19 13 -35t32 -16q10 0 19 6t16 15.5t11 20.5t4 22zM228 426h-18q-49 -137 -95.5 -277t-91.5 -286l86 54z" />
    <glyph glyph-name="cent" unicode="&#xa2;" horiz-adv-x="332" 
d="M351 204q0 10 -6.5 18.5t-17 15t-22.5 10t-22 3.5q-16 -1 -25 -5l19 53h-43l-21 -61q-183 -90 -183 -183q0 -30 25 -46q20 -13 53 -11l21 1l-20 -51h41l24 54q68 9 137 47l15 21q-83 -43 -144 -43l66 188l12 2l11 -2q0 -17 9 -33q10 -19 27 -19q16 0 30 12.5t14 28.5z
M195 191l-54 -158l-13 -3q-25 0 -25 46q0 36 29 70q25 30 63 45z" />
    <glyph glyph-name="sterling" unicode="&#xa3;" horiz-adv-x="898" 
d="M945 732q-35 29 -71 29q-57 0 -122 -40q-59 -36 -76 -69l-117 -236h-145l-35 -72h146l-103 -201q-97 35 -187 35q-74 0 -122 -19q-71 -27 -71 -88q0 -36 63 -55q46 -15 92 -15q121 0 188 79l178 -64q54 -19 135 -19q55 0 118 23q77 30 84 76l-17 -4q-49 -52 -118 -52
q-158 0 -296 81l11 11q22 22 47 73l69 139h125l35 72h-127l100 193q13 24 22 40.5t15 24.5q28 40 58 40q15 0 45 -11t40 -11q36 0 36 40zM355 84q-17 -23 -80 -41q-54 -16 -92 -16q-35 0 -70 11q-46 15 -46 45q0 26 59 47q49 18 81 18q33 0 84 -17q59 -19 64 -47z" />
    <glyph glyph-name="currency" unicode="&#xa4;" horiz-adv-x="579" 
d="M588 646l-35 35l-83 -84q-17 13 -27 18q-34 17 -75 17t-72 -18l-30 -17l-87 84l-31 -36l85 -81q-11 -14 -18 -27q-17 -36 -17 -73q0 -41 19 -75l18 -24l-87 -88l31 -29l88 85l27 -18q36 -18 72 -18q40 0 76 18l26 17l84 -86l34 31l-85 88l16 26q15 36 15 77q0 37 -15 70
l-15 26zM480 464q0 -24 -9 -45t-24 -36t-36 -24t-45 -9t-45 9t-36 24t-24 36t-9 45t8.5 45t24 36.5t36.5 24.5t45 9q47 0 80 -34q34 -34 34 -81z" />
    <glyph glyph-name="yen" unicode="&#xa5;" horiz-adv-x="1000" 
d="M1099 371h-140l82 168l-66 -12l-82 -156h-257l-24 -47h256l-38 -72q-2 -5 -12 -17l-11 -13h-195l-35 -43h183q-34 -28 -72.5 -53.5t-81.5 -48.5q-106 -58 -170 -58q-93 0 -93 101q0 131 125 286q105 129 261 231l9 14q4 5 4 15q-101 65 -245 65q-113 0 -208 -53
q-119 -68 -111 -165l2 -25l47 22l-1 16q-5 82 81 129q67 36 164 36q56 0 104 -12q74 -18 77 -56q-144 -73 -254 -216q-119 -158 -119 -307q0 -64 23 -95q25 -34 88 -34q78 0 208 68q54 29 100.5 60t84.5 65l-70 -156q-64 -13 -118.5 -33.5t-102.5 -48.5q-114 -68 -114 -134
q0 -26 35 -41q27 -12 57 -12q151 0 303 248l94 20l90 26l12 18q-81 -26 -172 -26l32 72l38 82h145l36 43h-161l49 102h121zM697 -24q-23 -66 -85 -134q-71 -78 -130 -78q-27 0 -36 6q-13 7 -13 32q0 54 116 120q101 58 131 58z" />
    <glyph glyph-name="brokenbar" unicode="&#xa6;" horiz-adv-x="236" 
d="M144 314v381l-55 36v-380zM144 -215v380l-55 36v-379z" />
    <glyph glyph-name="section" unicode="&#xa7;" horiz-adv-x="449" 
d="M539 676q-53 65 -135 65q-69 0 -118 -33q-57 -38 -57 -103q0 -48 25 -91q-62 -20 -99 -60q-44 -47 -44 -105q0 -49 44 -117l80 -123q42 -65 42 -95q0 -58 -94 -58q-75 0 -130 48l-28 -32q78 -54 149 -54t123 31q63 37 63 102q0 21 -9 36l-19 32q54 24 90 69q40 49 40 104
q0 44 -44 106l-81 115q-43 61 -43 99q0 34 38 51q29 13 68 13q60 0 118 -43zM397 231q-5 -38 -84 -75l-125 194q-10 16 -10 39q0 54 80 86l123 -182q16 -23 16 -62z" />
    <glyph glyph-name="dieresis" unicode="&#xa8;" horiz-adv-x="303" 
d="M386 499q0 13 -11.5 22.5t-24.5 9.5q-40 0 -40 -39q0 -36 38 -36t38 43zM223 500q0 35 -27 35q-19 0 -33.5 -15t-14.5 -34q0 -33 41 -33q34 0 34 47z" />
    <glyph glyph-name="copyright" unicode="&#xa9;" horiz-adv-x="605" 
d="M607 335q0 111 -79 187q-78 78 -188 78q-135 0 -222 -94q-86 -94 -86 -229q0 -120 72 -198q74 -80 192 -80q136 0 225 101q86 98 86 235zM596 346q0 -125 -99 -219q-98 -94 -225 -94q-96 0 -147 64q-48 58 -48 157q0 118 73 213q79 105 193 105q97 0 173 -64
q80 -68 80 -162zM457 476q-5 26 -64 26q-104 0 -183 -93q-75 -89 -75 -195q0 -57 33 -88.5t90 -31.5q48 0 102 26q59 29 78 68q-107 -69 -162 -69q-102 0 -102 110q0 83 49 159q55 88 133 88q37 0 72 -24z" />
    <glyph glyph-name="ordfeminine" unicode="&#xaa;" horiz-adv-x="370" 
d="M360 372h-17q-10 -5 -19 -8.5t-17 -5.5q-11 -5 -28 -8l38 90l3 16l-2 12l-41 -26l-38 -46q-36 -44 -88 -44q-15 1 -15 25q0 36 32 71q31 34 69 34l21 -5q12 -5 21 -5q31 0 34 21q-22 13 -44 13q-53 0 -111 -36q-73 -43 -73 -106q0 -14 12 -23t27 -9q61 0 119 52l-9 -48
q13 -6 26 -6q28 0 54 15zM330 307h-276l-19 -47h275z" />
    <glyph glyph-name="guillemotleft" unicode="&#xab;" horiz-adv-x="332" 
d="M352 252h-55l-123 -96l72 -133l47 18l-68 121zM254 252h-55l-123 -96l72 -133l47 18l-68 121z" />
    <glyph glyph-name="logicalnot" unicode="&#xac;" horiz-adv-x="1400" 
d="M1370 512q0 -29 -22 -50t-51 -21h-146q-19 0 -25 -6q-10 -13 -10 -39v-302q0 -14 2 -22q0 -9 17 -20v-55q-72 15 -72 85v322q0 94 96 94h136q20 0 20 18q0 17 -20 17h-146q-39 0 -62.5 23.5t-23.5 62.5v131h57v-131q0 -35 37 -35h148q28 0 46.5 -22t18.5 -50zM983 86
q0 -33 -23 -64q-28 -23 -63 -23h-282q-30 0 -50 19.5t-20 49.5q0 28 18 52q19 21 47 21h279v-53h-270q-8 0 -14.5 -7t-5.5 -15q3 -17 22 -17h250q61 0 61 45v76q0 45 -45 45h-250q-38 0 -67 26q-25 28 -25 66v89q0 45 26.5 73.5t71.5 28.5h246q76 0 89 -76h-50
q-20 21 -43 21h-244q-41 0 -41 -43v-95q0 -37 41 -37h246q43 0 69.5 -23t26.5 -65v-94zM475 66q0 -30 -21.5 -51.5t-51.5 -21.5q-31 0 -52 23q-20 20 -20 53v144l-2 25q-5 10 -18 23l-164 163q-11 14 -27 14q-10 0 -17 -6q-8 -22 -8 -32v-310q0 -17 8 -28q7 -15 27 -15h81
q13 6 25 21h53q-14 -71 -77 -71h-82q-88 0 -88 95v330q0 19 11 35q10 12 15 15q24 18 56 18q33 0 52 -19l179 -177q31 -31 31 -75v-151q0 -21 19 -21q10 0 18 21v678h53v-680zM-8 -90h1403v840h-1403v-840z" />
    <glyph glyph-name="registered" unicode="&#xae;" horiz-adv-x="628" 
d="M619 335q0 111 -79 187q-78 78 -188 78q-135 0 -222 -94q-86 -94 -86 -229q0 -120 72 -198q74 -80 192 -80q136 0 225 101q86 98 86 235zM608 346q0 -125 -99 -219q-98 -94 -225 -94q-96 0 -147 64q-48 58 -48 157q0 118 73 213q79 105 193 105q97 0 173 -64
q80 -68 80 -162zM500 394q0 53 -43 83q-38 27 -93 27q-72 0 -129 -42q-63 -45 -63 -115l4 -29l27 5l-2 21q0 66 42 103t108 37q48 0 80 -23t32 -69q0 -49 -34 -89q-35 -39 -82 -39v26l-39 -20q-8 -27 -8 -55q0 -97 63 -97q55 0 117 48l2 8l-34 -20q-33 -15 -61 -15
q-58 0 -55 71l1 21l3 21q60 0 112 41q52 42 52 101zM390 461l-2 3q-5 5 -18 5q-7 0 -16 -6l-58 -113q-77 -150 -148 -150q-18 0 -25 10l-8 -36q8 -8 15 -8h18q67 0 148 118q28 42 51.5 85.5t42.5 91.5z" />
    <glyph glyph-name="macron" unicode="&#xaf;" horiz-adv-x="465" 
d="M440 747h-276l-19 -47h275z" />
    <glyph glyph-name="degree" unicode="&#xb0;" horiz-adv-x="265" 
d="M319 413q0 38 -30 67q-29 30 -67 30q-51 0 -81.5 -33.5t-30.5 -84.5q0 -45 25.5 -73.5t70.5 -28.5q49 0 81 36q32 38 32 87zM290 413q0 -33 -28 -60q-28 -26 -60 -26q-54 0 -54 61q0 32 21 59q21 28 52 28q13 0 25.5 -5t22 -13.5t15.5 -20t6 -23.5z" />
    <glyph glyph-name="plusminus" unicode="&#xb1;" horiz-adv-x="557" 
d="M495 380h-177v194h-52v-198h-150l-20 -47h170v-205h52v205h156zM475 102h-381l-26 -47h380z" />
    <glyph glyph-name="twosuperior" unicode="&#xb2;" horiz-adv-x="340" 
d="M220 570q0 59 -59 59q-36 0 -68 -32q-30 -30 -35 -70l29 8q14 44 19 50q14 23 39 23q40 0 40 -43q0 -87 -163 -142l-2 -2l-1 -10l1 -6q40 -32 82 -32q20 0 44 8l43 21q4 4 4 10q-21 -8 -38 -10l-34 -3q-33 0 -59 20q45 23 71 37.5t34 21.5q53 41 53 92z" />
    <glyph glyph-name="threesuperior" unicode="&#xb3;" horiz-adv-x="340" 
d="M212 588q0 41 -46 41q-57 0 -70 -45l23 -2q8 20 28 20q30 0 30 -25l-3 -13q-37 -22 -42 -47q34 -28 34 -63q0 -25 -24 -47q-23 -22 -49 -22q-39 0 -39 43v5l-22 -4l-9 -3l-2 -2l-1 -11q0 -41 60 -41q44 0 81 31q39 31 39 72q0 20 -14 40l-18 19q6 10 28 22q16 9 16 32z
" />
    <glyph glyph-name="acute" unicode="&#xb4;" horiz-adv-x="215" 
d="M346 744q0 34 -32 34q-43 0 -50 -75q-29 -53 -88 -74v-20q46 4 105 47q65 47 65 88z" />
    <glyph glyph-name="mu" unicode="&#xb5;" 
d="M394 57q-55 -28 -127 -39q22 64 46 117.5t52 98.5h-37l-136 -133q-51 -49 -122 -66q14 42 23.5 67t14.5 36l46 100q-9 4 -21 4q-14 0 -27 -6l-15 -7q-43 -53 -85 -168q-32 -86 -51 -177l21 6q21 6 37 6l45 106l91 53q25 14 46.5 29t38.5 31l-16 -35q-15 -33 -15 -48
l5 -25l4 -14l24 -1q63 -3 158 65z" />
    <glyph glyph-name="paragraph" unicode="&#xb6;" horiz-adv-x="705" 
d="M610 616h-57l-73 -616h126l-1 14h-10q-56 0 -50 50zM728 709h-367q-117 0 -217 -81q-106 -85 -106 -199q0 -88 71 -139q62 -46 154 -46h116l-19 -183q-2 -24 -21.5 -36.5t-44.5 -10.5l-12 1l-1 -15h126l73 616h-56l-43 -348h-95q-67 0 -114 47t-47 114q0 98 63 167
q63 70 160 70h372z" />
    <glyph glyph-name="periodcentered" unicode="&#xb7;" horiz-adv-x="150" 
d="M132 241q0 40 -43 40q-20 0 -32.5 -13t-12.5 -33q0 -18 13.5 -30.5t31.5 -12.5q43 0 43 49z" />
    <glyph glyph-name="periodcentered" unicode="&#x2219;" horiz-adv-x="150" 
d="M132 241q0 40 -43 40q-20 0 -32.5 -13t-12.5 -33q0 -18 13.5 -30.5t31.5 -12.5q43 0 43 49z" />
    <glyph glyph-name="cedilla" unicode="&#xb8;" horiz-adv-x="273" 
d="M222 -107q0 14 -7 25.5t-18.5 19.5t-26 12t-29.5 3l-12 -1l29 50h-21l-39 -67l2 -10l20 4q21 0 39.5 -10.5t18.5 -29.5q0 -25 -28 -38q-20 -10 -50 -10q-21 0 -46 6l-46 11l-2 -7q23 -29 114 -29q39 0 67 16q35 20 35 55z" />
    <glyph glyph-name="onesuperior" unicode="&#xb9;" horiz-adv-x="239" 
d="M136 624q-9 10 -20 10q-30 -5 -43 -36l15 4q13 -1 13 -16q0 -30 -42 -103q-35 -59 -63 -96l35 9q105 139 105 228z" />
    <glyph glyph-name="ordmasculine" unicode="&#xba;" horiz-adv-x="334" 
d="M332 380l-43 -12l18 44q3 7 3 24q0 6 -7.5 14.5t-13.5 8.5q-21 0 -35 -17t-14 -38q0 -19 11 -38q-9 -7 -12 -8q-10 -3 -18 -5.5t-16 -4.5h-11q-51 0 -51 42q0 32 26 64q27 33 59 33q10 0 39 -9l28 -9q20 0 20 18q-26 18 -52 18q-52 0 -106 -30q-63 -35 -63 -83
q0 -60 65 -60q105 0 173 48zM340 307h-276l-19 -47h275zM299 420q-1 -7 -2 -11.5t-3 -8.5q-6 -9 -15 -12q-11 8 -11 20q0 10 5.5 23.5t13.5 13.5q7 -1 9 -8z" />
    <glyph glyph-name="guillemotright" unicode="&#xbb;" horiz-adv-x="322" 
d="M326 135l-68 125l-55 -26l59 -111l-114 -100h51zM227 135l-69 125l-56 -26l58 -111l-113 -100h51z" />
    <glyph glyph-name="onequarter" unicode="&#xbc;" horiz-adv-x="498" 
d="M473 75l-11 1l-29 1l19 61l-9 1l-10 -1l-32 -57l-21 -2q-46 0 -46 43q0 21 29 59q23 29 47 50q9 10 9 17l-7 3q-9 -1 -57 -52q-52 -56 -52 -86q0 -60 82 -60l-24 -59l28 2l25 54l24 3l27 9q5 5 8 13zM447 707h-42l-320 -710h39zM242 624q-9 10 -20 10q-30 -5 -43 -36
l15 4q13 -1 13 -16q0 -30 -42 -103q-17 -29 -33.5 -53t-30.5 -43l36 9q105 139 105 228z" />
    <glyph glyph-name="onehalf" unicode="&#xbd;" horiz-adv-x="506" 
d="M488 194q0 59 -59 59q-36 0 -68 -32q-30 -30 -35 -70l29 8q14 44 19 50q14 23 39 23q40 0 40 -43q0 -87 -163 -142l-2 -2l-1 -10l1 -6q38 -31 82 -31q23 0 44 7l43 21q4 4 4 10q-21 -8 -38 -10l-34 -3q-33 0 -59 20q45 23 71 37.5t34 21.5q53 41 53 92zM453 707h-42
l-320 -710h39zM248 624q-9 10 -20 10q-30 -5 -43 -36l15 4q13 -1 13 -16q0 -30 -42 -103q-17 -29 -33.5 -53t-30.5 -43l36 9q105 139 105 228z" />
    <glyph glyph-name="threequarters" unicode="&#xbe;" horiz-adv-x="578" 
d="M550 78l-11 1l-29 1l19 61l-9 1l-10 -1l-32 -57l-21 -2q-46 0 -46 43q0 21 29 59q23 29 47 50q9 10 9 17l-7 3q-9 -1 -57 -52q-52 -56 -52 -86q0 -60 82 -60l-24 -59l28 2l25 54l24 3l27 9q5 5 8 13zM311 588q0 41 -46 41q-57 0 -70 -45l23 -2q8 20 28 20q30 0 30 -25
l-3 -13q-37 -22 -42 -47q34 -28 34 -63q0 -25 -24 -47q-23 -22 -49 -22q-39 0 -39 43v5l-22 -4l-9 -3l-2 -2l-1 -11q0 -41 60 -41q44 0 81 31q39 31 39 72q0 20 -14 40l-18 19q6 10 28 22q16 9 16 32zM535 711h-41l-320 -711h38z" />
    <glyph glyph-name="questiondown" unicode="&#xbf;" horiz-adv-x="313" 
d="M357 422q0 38 -48 38q-40 0 -40 -44q0 -18 12 -31.5t30 -13.5q21 0 33.5 15t12.5 36zM305 282q0 19 -8 37h-35q8 -13 8 -25q0 -38 -68 -100l-125 -113q-67 -61 -67 -132q0 -42 29 -69.5t71 -27.5q48 0 104 48q49 43 69 94l-10 30q-16 -37 -58 -77q-52 -49 -103 -49
q-41 0 -41 29q0 24 61 94l113 131q60 70 60 130z" />
    <glyph glyph-name="Agrave" unicode="&#xc0;" horiz-adv-x="875" 
d="M936 699l-12 8q-10 7 -15 8l-20 -4l-18 -12q-210 -318 -400 -515l-98 25q-49 13 -91 13q-82 0 -124 -64q37 22 85 22q72 0 177 -49q-130 -130 -238 -130q-39 0 -65 26q4 9 4 24q0 19 -12.5 32t-31.5 13q-50 0 -50 -50q0 -42 44 -65q37 -21 82 -21q125 0 300 161
q66 -21 131 -33l-37 -86h66l41 74q46 5 87 13t76 18q94 26 101 51q-22 -8 -40 -14q-62 -17 -122 -15l-36 1l-31 3l229 512l13 37zM783 510l-168 -364l-83 20l-24 6q32 37 95 119l111 146l65 84l2 -4zM930 774q-44 18 -64 56l-18 54q-15 34 -37 33q-26 -2 -26 -38
q0 -42 46 -81q37 -31 85 -48z" />
    <glyph glyph-name="Aacute" unicode="&#xc1;" horiz-adv-x="875" 
d="M936 699l-12 8q-10 7 -15 8l-20 -4l-18 -12q-210 -318 -400 -515l-98 25q-49 13 -91 13q-82 0 -124 -64q37 22 85 22q72 0 177 -49q-130 -130 -238 -130q-39 0 -65 26q4 9 4 24q0 19 -12.5 32t-31.5 13q-50 0 -50 -50q0 -42 44 -65q37 -21 82 -21q125 0 300 161
q66 -21 131 -33l-37 -86h66l41 74q46 5 87 13t76 18q94 26 101 51q-22 -8 -40 -14q-62 -17 -122 -15l-36 1l-31 3l229 512l13 37zM783 510l-168 -364l-83 20l-24 6q32 37 95 119l111 146l65 84l2 -4zM1059 886q0 34 -32 34q-43 0 -50 -75q-29 -53 -88 -74v-20q46 4 105 47
q65 47 65 88z" />
    <glyph glyph-name="Acircumflex" unicode="&#xc2;" horiz-adv-x="875" 
d="M936 699l-12 8q-10 7 -15 8l-20 -4l-18 -12q-210 -318 -400 -515l-98 25q-49 13 -91 13q-82 0 -124 -64q37 22 85 22q72 0 177 -49q-130 -130 -238 -130q-39 0 -65 26q4 9 4 24q0 19 -12.5 32t-31.5 13q-50 0 -50 -50q0 -42 44 -65q37 -21 82 -21q125 0 300 161
q66 -21 131 -33l-37 -86h66l41 74q46 5 87 13t76 18q94 26 101 51q-22 -8 -40 -14q-62 -17 -122 -15l-36 1l-31 3l229 512l13 37zM783 510l-168 -364l-83 20l-24 6q32 37 95 119l111 146l65 84l2 -4zM1022 753l-1 22l-61 120q-5 8 -14 8q-13 0 -20 -9l-129 -137l25 -12
q23 12 67 49l45 37l70 -90z" />
    <glyph glyph-name="Atilde" unicode="&#xc3;" horiz-adv-x="875" 
d="M936 699l-12 8q-10 7 -15 8l-20 -4l-18 -12q-210 -318 -400 -515l-98 25q-49 13 -91 13q-82 0 -124 -64q37 22 85 22q72 0 177 -49q-130 -130 -238 -130q-39 0 -65 26q4 9 4 24q0 19 -12.5 32t-31.5 13q-50 0 -50 -50q0 -42 44 -65q37 -21 82 -21q125 0 300 161
q66 -21 131 -33l-37 -86h66l41 74q46 5 87 13t76 18q94 26 101 51q-22 -8 -40 -14q-62 -17 -122 -15l-36 1l-31 3l229 512l13 37zM783 510l-168 -364l-83 20l-24 6q32 37 95 119l111 146l65 84l2 -4zM1065 852h-24l-16 -30q-12 -15 -25 -15q-21 0 -67 18q-47 18 -66 18
q-35 0 -54.5 -22t-19.5 -57l2 -15l22 3q12 41 37 41q21 0 69 -18t70 -18q72 0 72 95z" />
    <glyph glyph-name="Adieresis" unicode="&#xc4;" horiz-adv-x="875" 
d="M936 699l-12 8q-10 7 -15 8l-20 -4l-18 -12q-210 -318 -400 -515l-98 25q-49 13 -91 13q-82 0 -124 -64q37 22 85 22q72 0 177 -49q-130 -130 -238 -130q-39 0 -65 26q4 9 4 24q0 19 -12.5 32t-31.5 13q-50 0 -50 -50q0 -42 44 -65q37 -21 82 -21q125 0 300 161
q66 -21 131 -33l-37 -86h66l41 74q46 5 87 13t76 18q94 26 101 51q-22 -8 -40 -14q-62 -17 -122 -15l-36 1l-31 3l229 512l13 37zM783 510l-168 -364l-83 20l-24 6q32 37 95 119l111 146l65 84l2 -4zM1054 809q0 13 -11.5 22.5t-24.5 9.5q-40 0 -40 -39q0 -36 38 -36t38 43z
M891 810q0 35 -27 35q-19 0 -33.5 -15t-14.5 -34q0 -33 41 -33q34 0 34 47z" />
    <glyph glyph-name="Aring" unicode="&#xc5;" horiz-adv-x="875" 
d="M936 699l-12 8q-10 7 -15 8l-20 -4l-18 -12q-210 -318 -400 -515l-98 25q-49 13 -91 13q-82 0 -124 -64q37 22 85 22q72 0 177 -49q-130 -130 -238 -130q-39 0 -65 26q4 9 4 24q0 19 -12.5 32t-31.5 13q-50 0 -50 -50q0 -42 44 -65q37 -21 82 -21q125 0 300 161
q66 -21 131 -33l-37 -86h66l41 74q46 5 87 13t76 18q94 26 101 51q-22 -8 -40 -14q-62 -17 -122 -15l-36 1l-31 3l229 512l13 37zM783 510l-168 -364l-83 20l-24 6q32 37 95 119l111 146l65 84l2 -4zM1036 852q0 32 -23 55t-55 23q-40 0 -65 -27.5t-25 -67.5
q0 -35 21.5 -58.5t55.5 -23.5q40 0 65.5 29.5t25.5 69.5zM1012 852q0 -27 -21.5 -48t-48.5 -21q-44 0 -44 49q0 13 4.5 25.5t12.5 22.5t19 16t23 6q21 0 38 -14.5t17 -35.5z" />
    <glyph glyph-name="AE" unicode="&#xc6;" horiz-adv-x="1360" 
d="M1389 713q-83 50 -210 50q-148 0 -251 -90l8 26l-12 8q-10 7 -15 8l-20 -4l-18 -12q-210 -318 -400 -515l-98 25q-49 13 -91 13q-82 0 -124 -64q37 22 85 22q72 0 177 -49q-130 -130 -238 -130q-39 0 -65 26q4 9 4 24q0 19 -12.5 32t-31.5 13q-50 0 -50 -50q0 -42 44 -65
q37 -21 82 -21q125 0 300 161q66 -21 131 -33l-37 -86h66l41 74l33 18q56 -113 251 -113q26 0 48 1t41 3q114 12 206 58q19 10 47.5 26.5t67.5 39.5l6 10q2 4 2 12l-191 -89q-63 -29 -162 -29q-106 0 -173 37q-86 47 -86 142q0 63 48 135q49 75 109 89q86 -47 185 -47
q85 0 150 22q86 29 86 83q0 32 -72 47q-44 9 -97 9q-109 0 -208 -46l-6 6q-10 16 -10 49q0 75 75 134q70 53 148 53q14 0 27.5 -1.5t25.5 -3.5q53 -11 128 -56q21 0 38.5 13.5t17.5 34.5zM1247 449q0 -28 -51 -41q-34 -10 -72 -10q-96 0 -153 61q62 38 151 38q36 0 72 -9
q53 -14 53 -39zM865 447l-29 -14l-17 -9l35 77q0 -25 6 -41zM783 510l-168 -364l-83 20l-24 6q32 37 95 119l111 146l65 84z" />
    <glyph glyph-name="Ccedilla" unicode="&#xc7;" horiz-adv-x="625" 
d="M723 717q0 26 -51 40q-34 10 -71 10q-197 0 -347 -180q-142 -169 -142 -366q0 -103 60 -166q60 -62 162 -62l-32 -55l2 -10l20 4q21 0 39.5 -10.5t18.5 -29.5q0 -25 -28 -38q-20 -10 -50 -10q-21 0 -46 6l-46 11l-2 -7q23 -29 114 -29q39 0 67 16q35 20 35 55
q0 14 -7 25.5t-18.5 19.5t-26 12t-29.5 3l-12 -1l22 38q91 0 188 49q104 53 143 128q-35 -23 -63 -40t-49 -28q-116 -63 -195 -63q-194 0 -194 209q0 154 94 302q107 167 251 167q64 0 138 -45z" />
    <glyph glyph-name="Egrave" unicode="&#xc8;" horiz-adv-x="755" 
d="M799 713q-83 50 -210 50q-116 0 -214 -62q-112 -70 -112 -181q0 -37 6 -55l6 -18q-82 -32 -138 -107q-57 -77 -57 -160q0 -199 268 -199q26 0 48 1t41 3q114 12 206 58q19 10 47.5 26.5t67.5 39.5l6 10q2 4 2 12l-191 -89q-63 -29 -162 -29q-106 0 -173 37
q-86 47 -86 142q0 63 48 135q49 75 109 89q86 -47 185 -47q85 0 150 22q86 29 86 83q0 32 -72 47q-44 9 -97 9q-109 0 -208 -46l-6 6q-10 16 -10 49q0 75 75 134q70 53 148 53q14 0 27.5 -1.5t25.5 -3.5q53 -11 128 -56q21 0 38.5 13.5t17.5 34.5zM657 449q0 -28 -51 -41
q-34 -10 -72 -10q-96 0 -153 61q62 38 151 38q36 0 72 -9q53 -14 53 -39zM628 812q-44 18 -64 56l-18 54q-15 34 -37 33q-26 -2 -26 -38q0 -42 46 -81q37 -31 85 -48z" />
    <glyph glyph-name="Eacute" unicode="&#xc9;" horiz-adv-x="755" 
d="M799 713q-83 50 -210 50q-116 0 -214 -62q-112 -70 -112 -181q0 -37 6 -55l6 -18q-82 -32 -138 -107q-57 -77 -57 -160q0 -199 268 -199q26 0 48 1t41 3q114 12 206 58q19 10 47.5 26.5t67.5 39.5l6 10q2 4 2 12l-191 -89q-63 -29 -162 -29q-106 0 -173 37
q-86 47 -86 142q0 63 48 135q49 75 109 89q86 -47 185 -47q85 0 150 22q86 29 86 83q0 32 -72 47q-44 9 -97 9q-109 0 -208 -46l-6 6q-10 16 -10 49q0 75 75 134q70 53 148 53q14 0 27.5 -1.5t25.5 -3.5q53 -11 128 -56q21 0 38.5 13.5t17.5 34.5zM657 449q0 -28 -51 -41
q-34 -10 -72 -10q-96 0 -153 61q62 38 151 38q36 0 72 -9q53 -14 53 -39zM759 925q0 34 -32 34q-43 0 -50 -75q-29 -53 -88 -74v-20q46 4 105 47q65 47 65 88z" />
    <glyph glyph-name="Ecircumflex" unicode="&#xca;" horiz-adv-x="755" 
d="M799 713q-83 50 -210 50q-116 0 -214 -62q-112 -70 -112 -181q0 -37 6 -55l6 -18q-82 -32 -138 -107q-57 -77 -57 -160q0 -199 268 -199q26 0 48 1t41 3q114 12 206 58q19 10 47.5 26.5t67.5 39.5l6 10q2 4 2 12l-191 -89q-63 -29 -162 -29q-106 0 -173 37
q-86 47 -86 142q0 63 48 135q49 75 109 89q86 -47 185 -47q85 0 150 22q86 29 86 83q0 32 -72 47q-44 9 -97 9q-109 0 -208 -46l-6 6q-10 16 -10 49q0 75 75 134q70 53 148 53q14 0 27.5 -1.5t25.5 -3.5q53 -11 128 -56q21 0 38.5 13.5t17.5 34.5zM657 449q0 -28 -51 -41
q-34 -10 -72 -10q-96 0 -153 61q62 38 151 38q36 0 72 -9q53 -14 53 -39zM712 796l-1 22l-61 120q-5 8 -14 8q-13 0 -20 -9l-129 -137l25 -12q23 12 67 49l45 37l70 -90z" />
    <glyph glyph-name="Edieresis" unicode="&#xcb;" horiz-adv-x="755" 
d="M799 713q-83 50 -210 50q-116 0 -214 -62q-112 -70 -112 -181q0 -37 6 -55l6 -18q-82 -32 -138 -107q-57 -77 -57 -160q0 -199 268 -199q26 0 48 1t41 3q114 12 206 58q19 10 47.5 26.5t67.5 39.5l6 10q2 4 2 12l-191 -89q-63 -29 -162 -29q-106 0 -173 37
q-86 47 -86 142q0 63 48 135q49 75 109 89q86 -47 185 -47q85 0 150 22q86 29 86 83q0 32 -72 47q-44 9 -97 9q-109 0 -208 -46l-6 6q-10 16 -10 49q0 75 75 134q70 53 148 53q14 0 27.5 -1.5t25.5 -3.5q53 -11 128 -56q21 0 38.5 13.5t17.5 34.5zM657 449q0 -28 -51 -41
q-34 -10 -72 -10q-96 0 -153 61q62 38 151 38q36 0 72 -9q53 -14 53 -39zM719 833q0 13 -11.5 22.5t-24.5 9.5q-40 0 -40 -39q0 -36 38 -36t38 43zM556 834q0 35 -27 35q-19 0 -33.5 -15t-14.5 -34q0 -33 41 -33q34 0 34 47z" />
    <glyph glyph-name="Igrave" unicode="&#xcc;" horiz-adv-x="809" 
d="M895 654q-31 39 -138 64q-89 21 -156 21q-147 0 -264 -55q-144 -68 -171 -196l70 22q0 97 115 143q84 34 198 34q139 0 258 -62l-181 -359q-131 -257 -311 -257q-78 0 -78 97q0 99 101 218l-72 -11q-91 -157 -91 -232q0 -58 29 -81q26 -20 85 -20q124 0 234 79
q102 72 163 190zM810 72v20q-106 -76 -236 -76l-4 -25q132 0 240 81zM651 800q-44 18 -64 56l-18 54q-15 34 -37 33q-26 -2 -26 -38q0 -42 46 -81q37 -31 85 -48z" />
    <glyph glyph-name="Iacute" unicode="&#xcd;" horiz-adv-x="809" 
d="M895 654q-31 39 -138 64q-89 21 -156 21q-147 0 -264 -55q-144 -68 -171 -196l70 22q0 97 115 143q84 34 198 34q139 0 258 -62l-181 -359q-131 -257 -311 -257q-78 0 -78 97q0 99 101 218l-72 -11q-91 -157 -91 -232q0 -58 29 -81q26 -20 85 -20q124 0 234 79
q102 72 163 190zM810 72v20q-106 -76 -236 -76l-4 -25q132 0 240 81zM739 911q0 34 -32 34q-43 0 -50 -75q-29 -53 -88 -74v-20q46 4 105 47q65 47 65 88z" />
    <glyph glyph-name="Icircumflex" unicode="&#xce;" horiz-adv-x="809" 
d="M897 654q-31 39 -138 64q-89 21 -156 21q-147 0 -264 -55q-144 -68 -171 -196l70 22q0 97 115 143q84 34 198 34q139 0 258 -62l-181 -359q-131 -257 -311 -257q-78 0 -78 97q0 99 101 218l-72 -11q-91 -157 -91 -232q0 -58 29 -81q26 -20 85 -20q124 0 234 79
q102 72 163 190zM812 72v20q-106 -76 -236 -76l-4 -25q132 0 240 81zM740 780l-1 22l-61 120q-5 8 -14 8q-13 0 -20 -9l-129 -137l25 -12q23 12 67 49l45 37l70 -90z" />
    <glyph glyph-name="Idieresis" unicode="&#xcf;" horiz-adv-x="809" 
d="M901 654q-31 39 -138 64q-89 21 -156 21q-147 0 -264 -55q-144 -68 -171 -196l70 22q0 97 115 143q84 34 198 34q139 0 258 -62l-181 -359q-131 -257 -311 -257q-78 0 -78 97q0 99 101 218l-72 -11q-91 -157 -91 -232q0 -58 29 -81q26 -20 85 -20q124 0 234 79
q102 72 163 190zM816 72v20q-106 -76 -236 -76l-4 -25q132 0 240 81zM747 831q0 13 -11.5 22.5t-24.5 9.5q-40 0 -40 -39q0 -36 38 -36t38 43zM584 832q0 35 -27 35q-19 0 -33.5 -15t-14.5 -34q0 -33 41 -33q34 0 34 47z" />
    <glyph glyph-name="Eth" unicode="&#xd0;" horiz-adv-x="740" 
d="M797 420q0 165 -111 266q-125 113 -316 104l-45 -2l-48 -71q14 2 24.5 3t17.5 2q8 1 15.5 1.5t12.5 0.5h28q182 0 277 -114q78 -95 78 -232q0 -146 -84 -246q-90 -107 -232 -107q-106 0 -183 56q-82 60 -94 163l-9 4l-13 3q-10 -1 -23 -19l-26 -37q24 -103 135 -155
q96 -44 205 -44q168 0 282 129q109 124 109 295zM645 428h-128q9 17 15.5 29.5t10.5 21.5q19 42 30.5 72t16.5 49l-16 8l-15 3q-47 0 -135 -183h-140l-26 -67h135l-120 -252l71 14q33 52 67.5 111.5t71.5 126.5h136z" />
    <glyph glyph-name="Ntilde" unicode="&#xd1;" horiz-adv-x="857" 
d="M889 467q0 29 -13 29q-10 -1 -15 -11l-205 -333q-3 -5 -11 -11l-8 -6l8 258q19 32 30 51t15 26q11 20 20 35.5t15 28.5q41 87 41 158q0 46 -41 46q-122 0 -147 -225q-4 -32 -5.5 -79.5t-1.5 -113.5q-29 -43 -52 -75t-42 -54q-127 -148 -246 -148q-100 0 -100 105
q0 117 129 245l-67 -12q-53 -49 -86 -114q-35 -72 -35 -137q0 -125 132 -125q117 0 262 145q16 16 42.5 45t63.5 71l14 -281l45 29l10 76l109 172q43 68 127 156q12 25 12 49zM855 47l-13 12l-49 -21q-23 -7 -41 -11t-31 -6q-16 -7 -22 -24l6 -3l14 -3l10 2zM718 625
q0 -86 -75 -189l-3 87q-1 36 14 93q19 70 50 70q14 -5 14 -61zM1042 877h-24l-16 -30q-12 -15 -25 -15q-21 0 -67 18q-47 18 -66 18q-35 0 -54.5 -22t-19.5 -57l2 -15l22 3q12 41 37 41q21 0 69 -18t70 -18q72 0 72 95z" />
    <glyph glyph-name="Ograve" unicode="&#xd2;" horiz-adv-x="879" 
d="M924 391q-22 -14 -55 -14q28 63 28 120q0 83 -64 83q-47 0 -77 -45q-25 -40 -25 -90q0 -103 72 -134q-58 -120 -163 -199q-112 -85 -240 -85q-102 0 -160.5 56.5t-58.5 158.5q0 91 63 207q68 125 169 203q118 92 243 92q10 0 18 -0.5t15 -1.5q48 -8 88 -31q14 -65 56 -65
q44 0 54 40q-72 89 -210 89q-137 0 -267 -75q-130 -73 -211 -192q-88 -127 -88 -268q0 -124 69.5 -190.5t194.5 -66.5q138 0 268 98q116 89 185 224l67 48q21 21 29 38zM895 94l-8 10q-29 -19 -74 -33t-108 -22l-12 -26q101 0 202 71zM870 474q0 -27 -9 -55q-12 -38 -33 -38
q-32 53 -32 99q0 21 10 44q12 29 28 29q36 0 36 -79zM825 814q-44 18 -64 56l-18 54q-15 34 -37 33q-26 -2 -26 -38q0 -42 46 -81q37 -31 85 -48z" />
    <glyph glyph-name="Oacute" unicode="&#xd3;" horiz-adv-x="879" 
d="M924 391q-22 -14 -55 -14q28 63 28 120q0 83 -64 83q-47 0 -77 -45q-25 -40 -25 -90q0 -103 72 -134q-58 -120 -163 -199q-112 -85 -240 -85q-102 0 -160.5 56.5t-58.5 158.5q0 91 63 207q68 125 169 203q118 92 243 92q10 0 18 -0.5t15 -1.5q48 -8 88 -31q14 -65 56 -65
q44 0 54 40q-72 89 -210 89q-137 0 -267 -75q-130 -73 -211 -192q-88 -127 -88 -268q0 -124 69.5 -190.5t194.5 -66.5q138 0 268 98q116 89 185 224l67 48q21 21 29 38zM895 94l-8 10q-29 -19 -74 -33t-108 -22l-12 -26q101 0 202 71zM870 474q0 -27 -9 -55q-12 -38 -33 -38
q-32 53 -32 99q0 21 10 44q12 29 28 29q36 0 36 -79zM868 932q0 34 -32 34q-43 0 -50 -75q-29 -53 -88 -74v-20q46 4 105 47q65 47 65 88z" />
    <glyph glyph-name="Ocircumflex" unicode="&#xd4;" horiz-adv-x="879" 
d="M924 391q-22 -14 -55 -14q28 63 28 120q0 83 -64 83q-47 0 -77 -45q-25 -40 -25 -90q0 -103 72 -134q-58 -120 -163 -199q-112 -85 -240 -85q-102 0 -160.5 56.5t-58.5 158.5q0 91 63 207q68 125 169 203q118 92 243 92q10 0 18 -0.5t15 -1.5q48 -8 88 -31q14 -65 56 -65
q44 0 54 40q-72 89 -210 89q-137 0 -267 -75q-130 -73 -211 -192q-88 -127 -88 -268q0 -124 69.5 -190.5t194.5 -66.5q138 0 268 98q116 89 185 224l67 48q21 21 29 38zM895 94l-8 10q-29 -19 -74 -33t-108 -22l-12 -26q101 0 202 71zM870 474q0 -27 -9 -55q-12 -38 -33 -38
q-32 53 -32 99q0 21 10 44q12 29 28 29q36 0 36 -79zM830 807l-1 22l-61 120q-5 8 -14 8q-13 0 -20 -9l-129 -137l25 -12q23 12 67 49l45 37l70 -90z" />
    <glyph glyph-name="Otilde" unicode="&#xd5;" horiz-adv-x="879" 
d="M924 391q-22 -14 -55 -14q28 63 28 120q0 83 -64 83q-47 0 -77 -45q-25 -40 -25 -90q0 -103 72 -134q-58 -120 -163 -199q-112 -85 -240 -85q-102 0 -160.5 56.5t-58.5 158.5q0 91 63 207q68 125 169 203q118 92 243 92q10 0 18 -0.5t15 -1.5q48 -8 88 -31q14 -65 56 -65
q44 0 54 40q-72 89 -210 89q-137 0 -267 -75q-130 -73 -211 -192q-88 -127 -88 -268q0 -124 69.5 -190.5t194.5 -66.5q138 0 268 98q116 89 185 224l67 48q21 21 29 38zM895 94l-8 10q-29 -19 -74 -33t-108 -22l-12 -26q101 0 202 71zM870 474q0 -27 -9 -55q-12 -38 -33 -38
q-32 53 -32 99q0 21 10 44q12 29 28 29q36 0 36 -79zM863 900h-24l-16 -30q-12 -15 -25 -15q-21 0 -67 18q-47 18 -66 18q-35 0 -54.5 -22t-19.5 -57l2 -15l22 3q12 41 37 41q21 0 69 -18t70 -18q72 0 72 95z" />
    <glyph glyph-name="Odieresis" unicode="&#xd6;" horiz-adv-x="879" 
d="M924 391q-22 -14 -55 -14q28 63 28 120q0 83 -64 83q-47 0 -77 -45q-25 -40 -25 -90q0 -103 72 -134q-58 -120 -163 -199q-112 -85 -240 -85q-102 0 -160.5 56.5t-58.5 158.5q0 91 63 207q68 125 169 203q118 92 243 92q10 0 18 -0.5t15 -1.5q48 -8 88 -31q14 -65 56 -65
q44 0 54 40q-72 89 -210 89q-137 0 -267 -75q-130 -73 -211 -192q-88 -127 -88 -268q0 -124 69.5 -190.5t194.5 -66.5q138 0 268 98q116 89 185 224l67 48q21 21 29 38zM895 94l-8 10q-29 -19 -74 -33t-108 -22l-12 -26q101 0 202 71zM870 474q0 -27 -9 -55q-12 -38 -33 -38
q-32 53 -32 99q0 21 10 44q12 29 28 29q36 0 36 -79zM832 844q0 13 -11.5 22.5t-24.5 9.5q-40 0 -40 -39q0 -36 38 -36t38 43zM669 845q0 35 -27 35q-19 0 -33.5 -15t-14.5 -34q0 -33 41 -33q34 0 34 47z" />
    <glyph glyph-name="multiply" unicode="&#xd7;" horiz-adv-x="557" 
d="M571 122l-181 181l181 183h-89l-140 -141l-132 132h-83l173 -173l-182 -182h89l138 137l137 -137h89z" />
    <glyph glyph-name="Oslash" unicode="&#xd8;" horiz-adv-x="879" 
d="M924 391q-22 -14 -55 -14q28 63 28 120q0 83 -64 83q-47 0 -77 -45q-25 -40 -25 -90q0 -103 72 -134q-59 -122 -164 -199q-127 -92 -239 -85l-43 3l367 701l30 -10l38 -16q8 -30 12 -38q10 -21 29 -21q44 0 54 40q-59 76 -140 88l58 111l-53 33l-74 -140
q-230 0 -402 -177q-165 -170 -165 -361t155 -241l-57 -109l59 -28l65 123l42 -2q130 -6 267 98q119 92 186 224l67 48q21 21 29 38zM870 474q0 -27 -9 -55q-12 -38 -33 -38q-32 53 -32 99q0 21 10 44q12 29 28 29q36 0 36 -79zM657 738l-364 -690q-112 55 -112 194
q0 94 57 204q34 65 76 116.5t94 89.5q115 86 249 86z" />
    <glyph glyph-name="Ugrave" unicode="&#xd9;" horiz-adv-x="990" 
d="M1027 572h-62l-230 -355q-29 -44 -152 -119q-134 -80 -210 -80q-85 0 -85 79q0 156 129 321q111 141 278 256q-3 28 -75 44q-53 13 -115 13q-135 0 -218 -44q-107 -57 -107 -181l43 8l-2 23q-6 74 75 122q65 38 154 38q44 0 93 -11q60 -13 80 -41q-152 -74 -274 -227
q-135 -170 -135 -323q0 -62 21 -90q24 -32 83 -32q88 0 212 65q51 28 97 60t88 70q-23 -81 -23 -115q0 -42 12.5 -56.5t52.5 -14.5q98 0 219 88l14 30q-137 -84 -195 -84q-35 0 -35 69q0 49 31 99zM862 782q-44 18 -64 56l-18 54q-15 34 -37 33q-26 -2 -26 -38q0 -42 46 -81
q37 -31 85 -48z" />
    <glyph glyph-name="Uacute" unicode="&#xda;" horiz-adv-x="990" 
d="M1033 572h-62l-230 -355q-29 -44 -152 -119q-134 -80 -210 -80q-85 0 -85 79q0 156 129 321q111 141 278 256q-3 28 -75 44q-53 13 -115 13q-135 0 -218 -44q-107 -57 -107 -181l43 8l-2 23q-6 74 75 122q65 38 154 38q44 0 93 -11q60 -13 80 -41q-152 -74 -274 -227
q-135 -170 -135 -323q0 -62 21 -90q24 -32 83 -32q88 0 212 65q51 28 97 60t88 70q-23 -81 -23 -115q0 -42 12.5 -56.5t52.5 -14.5q98 0 219 88l14 30q-137 -84 -195 -84q-35 0 -35 69q0 49 31 99zM1008 890q0 34 -32 34q-43 0 -50 -75q-29 -53 -88 -74v-20q46 4 105 47
q65 47 65 88z" />
    <glyph glyph-name="Ucircumflex" unicode="&#xdb;" horiz-adv-x="990" 
d="M1033 572h-62l-230 -355q-29 -44 -152 -119q-134 -80 -210 -80q-85 0 -85 79q0 156 129 321q111 141 278 256q-3 28 -75 44q-53 13 -115 13q-135 0 -218 -44q-107 -57 -107 -181l43 8l-2 23q-6 74 75 122q65 38 154 38q44 0 93 -11q60 -13 80 -41q-152 -74 -274 -227
q-135 -170 -135 -323q0 -62 21 -90q24 -32 83 -32q88 0 212 65q51 28 97 60t88 70q-23 -81 -23 -115q0 -42 12.5 -56.5t52.5 -14.5q98 0 219 88l14 30q-137 -84 -195 -84q-35 0 -35 69q0 49 31 99zM982 758l-1 22l-61 120q-5 8 -14 8q-13 0 -20 -9l-129 -137l25 -12
q23 12 67 49l45 37l70 -90z" />
    <glyph glyph-name="Udieresis" unicode="&#xdc;" horiz-adv-x="990" 
d="M1033 572h-62l-230 -355q-29 -44 -152 -119q-134 -80 -210 -80q-85 0 -85 79q0 156 129 321q111 141 278 256q-3 28 -75 44q-53 13 -115 13q-135 0 -218 -44q-107 -57 -107 -181l43 8l-2 23q-6 74 75 122q65 38 154 38q44 0 93 -11q60 -13 80 -41q-152 -74 -274 -227
q-135 -170 -135 -323q0 -62 21 -90q24 -32 83 -32q88 0 212 65q51 28 97 60t88 70q-23 -81 -23 -115q0 -42 12.5 -56.5t52.5 -14.5q98 0 219 88l14 30q-137 -84 -195 -84q-35 0 -35 69q0 49 31 99zM993 808q0 13 -11.5 22.5t-24.5 9.5q-40 0 -40 -39q0 -36 38 -36t38 43z
M830 809q0 35 -27 35q-19 0 -33.5 -15t-14.5 -34q0 -33 41 -33q34 0 34 47z" />
    <glyph glyph-name="Yacute" unicode="&#xdd;" horiz-adv-x="967" 
d="M1041 539l-66 -12l-145 -275q-32 -60 -167 -143q-146 -90 -227 -90q-93 0 -93 101q0 131 125 286q105 129 261 231l9 14q4 5 4 15q-101 65 -245 65q-113 0 -208 -53q-119 -68 -111 -165l2 -25l47 22l-1 16q-5 82 81 129q67 36 164 36q56 0 104 -12q74 -18 77 -56
q-144 -73 -254 -216q-119 -158 -119 -307q0 -64 23 -95q25 -34 88 -34q78 0 208 68q54 29 100.5 60t84.5 65l-70 -156q-64 -13 -118.5 -33.5t-102.5 -48.5q-114 -68 -114 -134q0 -26 35 -41q27 -12 57 -12q151 0 303 248l94 20l90 26l12 18q-81 -26 -172 -26l96 209z
M697 -24q-23 -66 -85 -134q-71 -78 -130 -78q-27 0 -36 6q-13 7 -13 32q0 54 116 120q101 58 131 58zM1049 889q0 34 -32 34q-43 0 -50 -75q-29 -53 -88 -74v-20q46 4 105 47q65 47 65 88z" />
    <glyph glyph-name="Thorn" unicode="&#xde;" horiz-adv-x="873" 
d="M937 362q0 63 -59 107q-49 37 -118 50q11 32 18 53t11 32l25 80h-62l-56 -158q-286 0 -286 -201q0 -38 12 -87l11 -45l51 12l2 6l2 15q-24 49 -24 95q0 101 63 139q49 29 156 29q-66 -173 -113 -265q-152 -297 -310 -297q-141 0 -141 177q0 100 70 209l-58 -18
q-71 -91 -71 -203q0 -197 162 -197q312 0 525 586q118 -28 118 -150q0 -72 -29 -132q-36 -71 -102 -71l-22 3q-13 3 -23 9l-29 -50l19 -9l20 -3q94 0 169 97q69 90 69 187z" />
    <glyph glyph-name="germandbls" unicode="&#xdf;" horiz-adv-x="358" 
d="M80 107l141 325q18 37 44 45q22 5 30 5q34 0 51 -32q2 -6 2 -8q0 -12 -14 -34l-8 -12l-8 -12q-39 -38 -61.5 -61t-29.5 -30q13 -13 25 -25.5t24 -25.5q30 -30 30 -58q0 -50 -51 -95q-49 -44 -108 -55q-24 -4 -46 22q-18 22 -21 51zM187 487l-298 -675l51 4l109 223l2 5
q28 -56 81 -51q92 6 158 60q72 59 66 143q-3 49 -57 102l34 30l34 30q43 40 39 96q-1 36 -17 52q-8 7 -45 24q-47 20 -89 7q-26 -8 -33 -13q-7 -4 -15.5 -13.5t-19.5 -23.5z" />
    <glyph glyph-name="agrave" unicode="&#xe0;" 
d="M388 59h-25l-52 -22l-44 -12l57 135q4 8 4 24l-2 19l-63 -39l-57 -70q-23 -28 -60 -46.5t-72 -18.5q-9 1 -16 14t-7 23q0 53 49 105q50 53 103 53l25 -5q26 -10 38 -10q18 0 35 7q16 8 17 24q-35 20 -66 20q-80 0 -168 -54q-109 -67 -109 -160q0 -20 18.5 -33t39.5 -13
q97 0 179 76l-13 -72q14 -7 39 -7q61 0 150 62zM285 336q-44 18 -64 56l-18 54q-15 34 -37 33q-26 -2 -26 -38q0 -42 46 -81q37 -31 85 -48z" />
    <glyph glyph-name="aacute" unicode="&#xe1;" 
d="M388 59h-25l-52 -22l-44 -12l57 135q4 8 4 24l-2 19l-63 -39l-57 -70q-23 -28 -60 -46.5t-72 -18.5q-9 1 -16 14t-7 23q0 53 49 105q50 53 103 53l25 -5q26 -10 38 -10q18 0 35 7q16 8 17 24q-35 20 -66 20q-80 0 -168 -54q-109 -67 -109 -160q0 -20 18.5 -33t39.5 -13
q97 0 179 76l-13 -72q14 -7 39 -7q61 0 150 62zM343 449q0 34 -32 34q-43 0 -50 -75q-29 -53 -88 -74v-20q46 4 105 47q65 47 65 88z" />
    <glyph glyph-name="acircumflex" unicode="&#xe2;" 
d="M388 59h-25l-52 -22l-44 -12l57 135q4 8 4 24l-2 19l-63 -39l-57 -70q-23 -28 -60 -46.5t-72 -18.5q-9 1 -16 14t-7 23q0 53 49 105q50 53 103 53l25 -5q26 -10 38 -10q18 0 35 7q16 8 17 24q-35 20 -66 20q-80 0 -168 -54q-109 -67 -109 -160q0 -20 18.5 -33t39.5 -13
q97 0 179 76l-13 -72q14 -7 39 -7q61 0 150 62zM352 324l-1 22l-61 120q-5 8 -14 8q-13 0 -20 -9l-129 -137l25 -12q23 12 67 49l45 37l70 -90z" />
    <glyph glyph-name="atilde" unicode="&#xe3;" 
d="M388 59h-25l-52 -22l-44 -12l57 135q4 8 4 24l-2 19l-63 -39l-57 -70q-23 -28 -60 -46.5t-72 -18.5q-9 1 -16 14t-7 23q0 53 49 105q50 53 103 53l25 -5q26 -10 38 -10q18 0 35 7q16 8 17 24q-35 20 -66 20q-80 0 -168 -54q-109 -67 -109 -160q0 -20 18.5 -33t39.5 -13
q97 0 179 76l-13 -72q14 -7 39 -7q61 0 150 62zM357 438h-24l-16 -30q-12 -15 -25 -15q-21 0 -67 18q-47 18 -66 18q-35 0 -54.5 -22t-19.5 -57l2 -15l22 3q12 41 37 41q21 0 69 -18t70 -18q72 0 72 95z" />
    <glyph glyph-name="adieresis" unicode="&#xe4;" 
d="M388 59h-25l-52 -22l-44 -12l57 135q4 8 4 24l-2 19l-63 -39l-57 -70q-23 -28 -60 -46.5t-72 -18.5q-9 1 -16 14t-7 23q0 53 49 105q50 53 103 53l25 -5q26 -10 38 -10q18 0 35 7q16 8 17 24q-35 20 -66 20q-80 0 -168 -54q-109 -67 -109 -160q0 -20 18.5 -33t39.5 -13
q97 0 179 76l-13 -72q14 -7 39 -7q61 0 150 62zM385 404q0 13 -11.5 22.5t-24.5 9.5q-40 0 -40 -39q0 -36 38 -36t38 43zM222 405q0 35 -27 35q-19 0 -33.5 -15t-14.5 -34q0 -33 41 -33q34 0 34 47z" />
    <glyph glyph-name="aring" unicode="&#xe5;" 
d="M388 59h-25l-52 -22l-44 -12l57 135q4 8 4 24l-2 19l-63 -39l-57 -70q-23 -28 -60 -46.5t-72 -18.5q-9 1 -16 14t-7 23q0 53 49 105q50 53 103 53l25 -5q26 -10 38 -10q18 0 35 7q16 8 17 24q-35 20 -66 20q-80 0 -168 -54q-109 -67 -109 -160q0 -20 18.5 -33t39.5 -13
q97 0 179 76l-13 -72q14 -7 39 -7q61 0 150 62zM308 408q0 32 -23 55t-55 23q-40 0 -65 -27.5t-25 -67.5q0 -35 21.5 -58.5t55.5 -23.5q40 0 65.5 29.5t25.5 69.5zM284 408q0 -27 -21.5 -48t-48.5 -21q-44 0 -44 49q0 13 4.5 25.5t12.5 22.5t19 16t23 6q21 0 38 -14.5
t17 -35.5z" />
    <glyph glyph-name="ae" unicode="&#xe6;" horiz-adv-x="623" 
d="M554 208q0 24 -25 37q-20 11 -46 11q-63 0 -149 -73l-2 20l-63 -39l-57 -70q-23 -28 -60 -46.5t-72 -18.5q-9 1 -16 14t-7 23q0 53 49 105q50 53 103 53l25 -5q26 -10 38 -10q18 0 35 7q16 8 17 24q-35 20 -66 20q-80 0 -168 -54q-109 -67 -109 -160q0 -20 18.5 -33
t39.5 -13q97 0 179 76l-13 -72q14 -7 39 -7q39 0 52 4q19 -10 53 -10q82 0 185 65q-116 -43 -165 -43q-11 2 -22 15t-14 25l150 62q29 12 50 38t21 55zM484 196q0 -38 -52 -77q-42 -32 -88 -45q0 54 50 107q44 47 72 47q18 -2 18 -32z" />
    <glyph glyph-name="ccedilla" unicode="&#xe7;" horiz-adv-x="298" 
d="M322 206q0 22 -28 35q-24 11 -47 11q-64 0 -151 -63q-93 -68 -93 -132q0 -61 82 -61l-27 -47l2 -10l20 4q21 0 39.5 -10.5t18.5 -29.5q0 -25 -28 -38q-20 -10 -50 -10q-21 0 -46 6l-45 11l-2 -7q23 -29 113 -29q39 0 67 16q35 20 35 55q0 14 -7 25.5t-18.5 19.5t-26 12
t-29.5 3l-12 -1l17 30q44 0 91 16q12 5 33.5 14t52.5 23l15 21l-78 -31q-36 -14 -79 -14q-31 0 -45 8q-17 11 -17 41q0 43 48 94q48 52 91 52q17 -1 26 -5l-4 -20q0 -33 32 -33q50 0 50 44z" />
    <glyph glyph-name="egrave" unicode="&#xe8;" horiz-adv-x="275" 
d="M293 218q0 24 -25 37q-20 11 -46 11q-54 0 -133 -60q-89 -68 -89 -132q0 -74 88 -74q83 0 185 66q-116 -43 -165 -43q-11 2 -22 15t-14 25l150 62q29 12 50 38t21 55zM223 206q0 -38 -52 -77q-42 -32 -88 -45q0 54 50 107q44 47 72 47q18 -2 18 -32zM262 329
q-44 18 -64 56l-18 54q-15 34 -37 33q-26 -2 -26 -38q0 -42 46 -81q37 -31 85 -48z" />
    <glyph glyph-name="eacute" unicode="&#xe9;" horiz-adv-x="275" 
d="M293 218q0 24 -25 37q-20 11 -46 11q-54 0 -133 -60q-89 -68 -89 -132q0 -74 88 -74q83 0 185 66q-116 -43 -165 -43q-11 2 -22 15t-14 25l150 62q29 12 50 38t21 55zM223 206q0 -38 -52 -77q-42 -32 -88 -45q0 54 50 107q44 47 72 47q18 -2 18 -32zM346 438q0 34 -32 34
q-43 0 -50 -75q-29 -53 -88 -74v-20q46 4 105 47q65 47 65 88z" />
    <glyph glyph-name="ecircumflex" unicode="&#xea;" horiz-adv-x="275" 
d="M293 218q0 24 -25 37q-20 11 -46 11q-54 0 -133 -60q-89 -68 -89 -132q0 -74 88 -74q83 0 185 66q-116 -43 -165 -43q-11 2 -22 15t-14 25l150 62q29 12 50 38t21 55zM223 206q0 -38 -52 -77q-42 -32 -88 -45q0 54 50 107q44 47 72 47q18 -2 18 -32zM329 316l-1 22
l-61 120q-5 8 -14 8q-13 0 -20 -9l-129 -137l25 -12q23 12 67 49l45 37l70 -90z" />
    <glyph glyph-name="edieresis" unicode="&#xeb;" horiz-adv-x="275" 
d="M293 218q0 24 -25 37q-20 11 -46 11q-54 0 -133 -60q-89 -68 -89 -132q0 -74 88 -74q83 0 185 66q-116 -43 -165 -43q-11 2 -22 15t-14 25l150 62q29 12 50 38t21 55zM223 206q0 -38 -52 -77q-42 -32 -88 -45q0 54 50 107q44 47 72 47q18 -2 18 -32zM385 401
q0 13 -11.5 22.5t-24.5 9.5q-40 0 -40 -39q0 -36 38 -36t38 43zM222 402q0 35 -27 35q-19 0 -33.5 -15t-14.5 -34q0 -33 41 -33q34 0 34 47z" />
    <glyph glyph-name="igrave" unicode="&#xec;" horiz-adv-x="204" 
d="M268 84q-16 -6 -31 -11.5t-29 -10.5q-51 -17 -85 -17l84 213h-58l-95 -219q-2 -6 -2 -7q0 -13 20 -24q71 15 103 28q52 19 93 48zM221 333q-44 18 -64 56l-18 54q-15 34 -37 33q-26 -2 -26 -38q0 -42 46 -81q37 -31 85 -48z" />
    <glyph glyph-name="iacute" unicode="&#xed;" horiz-adv-x="204" 
d="M265 84q-16 -6 -31 -11.5t-29 -10.5q-51 -17 -85 -17l84 213h-58l-95 -219q-2 -6 -2 -7q0 -13 20 -24q71 15 103 28q52 19 93 48zM321 440q0 34 -32 34q-43 0 -50 -75q-29 -53 -88 -74v-20q46 4 105 47q65 47 65 88z" />
    <glyph glyph-name="icircumflex" unicode="&#xee;" horiz-adv-x="204" 
d="M266 84q-16 -6 -31 -11.5t-29 -10.5q-51 -17 -85 -17l84 213h-58l-95 -219q-2 -6 -2 -7q0 -13 20 -24q71 15 103 28q52 19 93 48zM278 324l-1 18l-50 101q-6 7 -12 7q-9 0 -17 -8l-106 -115l20 -10l56 42l37 30l58 -75z" />
    <glyph glyph-name="idieresis" unicode="&#xef;" horiz-adv-x="204" 
d="M265 84q-16 -6 -31 -11.5t-29 -10.5q-51 -17 -85 -17l84 213h-58l-95 -219q-2 -6 -2 -7q0 -13 20 -24q71 15 103 28q52 19 93 48zM320 392q0 13 -11.5 22.5t-24.5 9.5q-40 0 -40 -39q0 -36 38 -36t38 43zM157 393q0 35 -27 35q-19 0 -33.5 -15t-14.5 -34q0 -33 41 -33
q34 0 34 47z" />
    <glyph glyph-name="eth" unicode="&#xf0;" horiz-adv-x="351" 
d="M338 142q0 70 -30 144q-31 78 -82 121l42 48l-21 14l-40 -46l-32 24l-37 23q-7 -10 -9 -25q-1 -5 -1.5 -12t-0.5 -15l27 -13l24 -15l-59 -67l19 -14l62 66q68 -56 95 -142l-17 6l-22 6q-78 0 -160 -45q-95 -53 -95 -124q0 -42 28 -65.5t70 -23.5q95 0 158 29
q81 39 81 126zM314 122q0 -47 -65 -82q-53 -29 -96 -29q-77 0 -77 63q0 46 41 96q40 49 87 49q22 0 69 -18q22 -8 31 -8q10 -33 10 -71z" />
    <glyph glyph-name="ntilde" unicode="&#xf1;" horiz-adv-x="386" 
d="M382 63l-56 -22q-20 -7 -34.5 -10.5t-22.5 -5.5l76 157q6 12 6 27q0 20 -4.5 25t-24.5 5q-31 0 -53 -14l-178 -120l55 139h-63l-108 -244h44l21 29l233 164l-41 -90q-11 -26 -18.5 -49.5t-9.5 -45.5l7 -3q15 -5 24 -5q45 0 143 43zM397 437h-24l-16 -30q-12 -15 -25 -15
q-21 0 -67 18q-47 18 -66 18q-35 0 -54.5 -22t-19.5 -57l2 -15l22 3q12 41 37 41q21 0 69 -18t70 -18q72 0 72 95z" />
    <glyph glyph-name="ograve" unicode="&#xf2;" horiz-adv-x="351" 
d="M361 59l-65 -18l22 49q11 26 10 52q0 10 -11 22t-21 12q-15 0 -28.5 -7t-23.5 -18t-16 -26t-6 -31q0 -28 16 -57q-37 -26 -85 -26q-77 0 -77 63q0 46 41 96q40 49 87 49q15 0 44 -9l56 -18q31 0 31 27q-14 7 -21 12q-30 14 -58 14q-78 0 -160 -45q-95 -53 -95 -124
q0 -42 28 -65.5t70 -23.5q163 0 262 72zM311 118q0 -42 -30 -48q-17 9 -17 30q0 12 8 33q9 23 21 23q18 0 18 -38zM284 322q-44 18 -64 56l-18 54q-15 34 -37 33q-26 -2 -26 -38q0 -42 46 -81q37 -31 85 -48z" />
    <glyph glyph-name="oacute" unicode="&#xf3;" horiz-adv-x="351" 
d="M361 59l-65 -18l22 49q11 26 10 52q0 10 -11 22t-21 12q-15 0 -28.5 -7t-23.5 -18t-16 -26t-6 -31q0 -28 16 -57q-37 -26 -85 -26q-77 0 -77 63q0 46 41 96q40 49 87 49q15 0 44 -9l56 -18q31 0 31 27q-14 7 -21 12q-30 14 -58 14q-78 0 -160 -45q-95 -53 -95 -124
q0 -42 28 -65.5t70 -23.5q163 0 262 72zM311 118q0 -42 -30 -48q-17 9 -17 30q0 12 8 33q9 23 21 23q18 0 18 -38zM368 421q0 34 -32 34q-43 0 -50 -75q-29 -53 -88 -74v-20q46 4 105 47q65 47 65 88z" />
    <glyph glyph-name="ocircumflex" unicode="&#xf4;" horiz-adv-x="351" 
d="M361 59l-65 -18l22 49q11 26 10 52q0 10 -11 22t-21 12q-15 0 -28.5 -7t-23.5 -18t-16 -26t-6 -31q0 -28 16 -57q-37 -26 -85 -26q-77 0 -77 63q0 46 41 96q40 49 87 49q15 0 44 -9l56 -18q31 0 31 27q-14 7 -21 12q-30 14 -58 14q-78 0 -160 -45q-95 -53 -95 -124
q0 -42 28 -65.5t70 -23.5q163 0 262 72zM311 118q0 -42 -30 -48q-17 9 -17 30q0 12 8 33q9 23 21 23q18 0 18 -38zM349 303l-1 22l-61 120q-5 8 -14 8q-13 0 -20 -9l-129 -137l25 -12q23 12 67 49l45 37l70 -90z" />
    <glyph glyph-name="otilde" unicode="&#xf5;" horiz-adv-x="351" 
d="M361 59l-65 -18l22 49q11 26 10 52q0 10 -11 22t-21 12q-15 0 -28.5 -7t-23.5 -18t-16 -26t-6 -31q0 -28 16 -57q-37 -26 -85 -26q-77 0 -77 63q0 46 41 96q40 49 87 49q15 0 44 -9l56 -18q31 0 31 27q-14 7 -21 12q-30 14 -58 14q-78 0 -160 -45q-95 -53 -95 -124
q0 -42 28 -65.5t70 -23.5q163 0 262 72zM311 118q0 -42 -30 -48q-17 9 -17 30q0 12 8 33q9 23 21 23q18 0 18 -38zM366 434h-24l-16 -30q-12 -15 -25 -15q-21 0 -67 18q-47 18 -66 18q-35 0 -54.5 -22t-19.5 -57l2 -15l22 3q12 41 37 41q21 0 69 -18t70 -18q72 0 72 95z" />
    <glyph glyph-name="odieresis" unicode="&#xf6;" horiz-adv-x="351" 
d="M361 59l-65 -18l22 49q11 26 10 52q0 10 -11 22t-21 12q-15 0 -28.5 -7t-23.5 -18t-16 -26t-6 -31q0 -28 16 -57q-37 -26 -85 -26q-77 0 -77 63q0 46 41 96q40 49 87 49q15 0 44 -9l56 -18q31 0 31 27q-14 7 -21 12q-30 14 -58 14q-78 0 -160 -45q-95 -53 -95 -124
q0 -42 28 -65.5t70 -23.5q163 0 262 72zM311 118q0 -42 -30 -48q-17 9 -17 30q0 12 8 33q9 23 21 23q18 0 18 -38zM385 390q0 13 -11.5 22.5t-24.5 9.5q-40 0 -40 -39q0 -36 38 -36t38 43zM222 391q0 35 -27 35q-19 0 -33.5 -15t-14.5 -34q0 -33 41 -33q34 0 34 47z" />
    <glyph glyph-name="divide" unicode="&#xf7;" horiz-adv-x="465" 
d="M362 341q0 40 -43 40q-20 0 -32.5 -13t-12.5 -33q0 -18 13.5 -30.5t31.5 -12.5q43 0 43 49zM473 232h-360l-25 -46h359zM302 91q0 40 -43 40q-20 0 -32.5 -13t-12.5 -33q0 -18 13.5 -30.5t31.5 -12.5q43 0 43 49z" />
    <glyph glyph-name="oslash" unicode="&#xf8;" horiz-adv-x="351" 
d="M361 59l-65 -18l22 49q11 26 10 52q0 10 -11 22t-21 12q-15 0 -28.5 -7t-23.5 -18t-16 -26t-6 -31q0 -28 16 -57q-38 -28 -85 -26l-24 1l107 203l39 -16q15 -7 29 -7q31 0 31 27q-41 26 -83 26l40 75l-29 6l-44 -84q-74 -11 -138 -51q-80 -51 -80 -115q0 -36 22.5 -60
t58.5 -28l-30 -57l31 -6l33 62q63 0 129 19q69 19 116 53zM311 118q0 -42 -30 -48q-17 9 -17 30q0 12 8 33q9 23 21 23q18 0 18 -38zM206 218l-105 -196q-25 15 -25 52q0 52 40 95q42 45 90 49z" />
    <glyph glyph-name="ugrave" unicode="&#xf9;" 
d="M394 57q-55 -28 -127 -39q22 64 46 117.5t52 98.5h-37l-136 -133q-51 -49 -122 -66q14 42 23.5 67t14.5 36l46 100q-9 4 -21 4q-14 0 -27 -6l-15 -7l-47 -77q-48 -80 -48 -115q0 -25 6 -33t30 -8q33 0 106 46q60 39 96 73l-16 -35q-15 -33 -15 -48l5 -25l4 -14l24 -1
q63 -3 158 65zM295 323q-44 18 -64 56l-18 54q-15 34 -37 33q-26 -2 -26 -38q0 -42 46 -81q37 -31 85 -48z" />
    <glyph glyph-name="uacute" unicode="&#xfa;" 
d="M394 57q-55 -28 -127 -39q22 64 46 117.5t52 98.5h-37l-136 -133q-51 -49 -122 -66q14 42 23.5 67t14.5 36l46 100q-9 4 -21 4q-14 0 -27 -6l-15 -7l-47 -77q-48 -80 -48 -115q0 -25 6 -33t30 -8q33 0 106 46q60 39 96 73l-16 -35q-15 -33 -15 -48l5 -25l4 -14l24 -1
q63 -3 158 65zM349 430q0 34 -32 34q-43 0 -50 -75q-29 -53 -88 -74v-20q46 4 105 47q65 47 65 88z" />
    <glyph glyph-name="ucircumflex" unicode="&#xfb;" 
d="M394 57q-55 -28 -127 -39q22 64 46 117.5t52 98.5h-37l-136 -133q-51 -49 -122 -66q14 42 23.5 67t14.5 36l46 100q-9 4 -21 4q-14 0 -27 -6l-15 -7l-47 -77q-48 -80 -48 -115q0 -25 6 -33t30 -8q33 0 106 46q60 39 96 73l-16 -35q-15 -33 -15 -48l5 -25l4 -14l24 -1
q63 -3 158 65zM348 312l-1 22l-61 120q-5 8 -14 8q-13 0 -20 -9l-129 -137l25 -12q23 12 67 49l45 37l70 -90z" />
    <glyph glyph-name="udieresis" unicode="&#xfc;" 
d="M394 57q-55 -28 -127 -39q22 64 46 117.5t52 98.5h-37l-136 -133q-51 -49 -122 -66q14 42 23.5 67t14.5 36l46 100q-9 4 -21 4q-14 0 -27 -6l-15 -7l-47 -77q-48 -80 -48 -115q0 -25 6 -33t30 -8q33 0 106 46q60 39 96 73l-16 -35q-15 -33 -15 -48l5 -25l4 -14l24 -1
q63 -3 158 65zM385 399q0 13 -11.5 22.5t-24.5 9.5q-40 0 -40 -39q0 -36 38 -36t38 43zM222 400q0 35 -27 35q-19 0 -33.5 -15t-14.5 -34q0 -33 41 -33q34 0 34 47z" />
    <glyph glyph-name="yacute" unicode="&#xfd;" horiz-adv-x="360" 
d="M377 55v25l-131 -66l80 177l-51 -5q-34 -60 -96 -103q-60 -43 -131 -58l84 186q4 8 4 21l-2 12l-2 6q-8 -2 -18.5 -6t-23.5 -11q-29 -15 -34 -26l-71 -193q9 -19 35 -19q53 0 183 85l-49 -124q-172 -76 -172 -170q0 -21 7.5 -27.5t27.5 -6.5q37 0 90 38q45 33 55 55
l50 111zM136 -83q-38 -137 -100 -137q-12 4 -12 29q0 36 46 76q40 36 59 36zM354 439q0 34 -32 34q-43 0 -50 -75q-29 -53 -88 -74v-20q46 4 105 47q65 47 65 88z" />
    <glyph glyph-name="thorn" unicode="&#xfe;" horiz-adv-x="426" 
d="M410 63q-87 -38 -135 -38l33 74q35 79 35 108q0 34 -35 34q-13 -1 -83 -56q-56 -44 -120 -99q2 7 6 17.5t10 24.5l85 197q33 76 33 93q0 67 -50 67l-14 -2l-8 -2l-2 -6q-5 -17 -5 -25l8 -61l-226 -570h51l71 174q26 37 49 65.5t42 48.5q58 61 120 82l-34 -69
q-31 -62 -31 -120q17 -5 29 -5q53 0 163 52z" />
    <glyph glyph-name="ydieresis" unicode="&#xff;" horiz-adv-x="360" 
d="M377 55v25l-131 -66l80 177l-51 -5q-34 -60 -96 -103q-60 -43 -131 -58l84 186q4 8 4 21l-2 12l-2 6q-8 -2 -18.5 -6t-23.5 -11q-29 -15 -34 -26l-71 -193q9 -19 35 -19q53 0 183 85l-49 -124q-172 -76 -172 -170q0 -21 7.5 -27.5t27.5 -6.5q37 0 90 38q45 33 55 55
l50 111zM136 -83q-38 -137 -100 -137q-12 4 -12 29q0 36 46 76q40 36 59 36zM385 398q0 13 -11.5 22.5t-24.5 9.5q-40 0 -40 -39q0 -36 38 -36t38 43zM222 399q0 35 -27 35q-19 0 -33.5 -15t-14.5 -34q0 -33 41 -33q34 0 34 47z" />
    <glyph glyph-name="OE" unicode="&#x152;" horiz-adv-x="1270" 
d="M1289 716q-83 50 -210 50q-114 0 -210 -60q-32 34 -90 53q-53 18 -103 18q-137 0 -267 -75q-130 -73 -211 -192q-88 -127 -88 -268q0 -125 69.5 -191.5t194.5 -66.5q97 0 174 42q24 14 56 42q25 -29 51 -45q70 -43 183 -43q182 0 295 65l115 67l6 10q2 4 2 12l-191 -89
q-63 -29 -162 -29q-106 0 -173 37q-86 47 -86 142q0 56 53 129q51 69 104 95q89 -50 185 -50q83 0 150 23q86 30 86 85q0 32 -72 50q-50 12 -98 12q-99 0 -207 -52l-6 6q-10 16 -10 49q0 78 74 132q68 50 149 50q77 0 181 -56q21 0 38.5 13.5t17.5 34.5zM1147 452
q0 -28 -51 -43q-39 -11 -72 -11q-92 0 -153 64q62 38 151 38q36 0 72 -9q53 -14 53 -39zM813 648q-65 -71 -65 -125q0 -36 9 -55l8 -18q-66 -25 -120 -85q-79 -88 -79 -182q0 -34 10 -61l10 -28l-56 -33q-71 -33 -131 -33q-50 0 -90.5 15t-69 43t-44 68t-15.5 90
q0 91 63 207q68 125 169 203q118 92 243 92q52 0 100 -23q58 -28 58 -75z" />
    <glyph glyph-name="oe" unicode="&#x153;" horiz-adv-x="578" 
d="M570 213q0 11 -6 20.5t-16 16t-21.5 10.5t-23.5 4q-17 0 -53 -15q-34 -13 -53 -26q-19 12 -47 15q-25 5 -54 5q-84 0 -157 -42q-87 -50 -87 -128q0 -41 38 -67q33 -21 78 -21q70 0 129 35q18 -27 72 -27q76 0 185 70q-30 -11 -82 -24q-61 -15 -82 -14q-31 1 -38 38
l149 58q69 27 69 92zM504 200q0 -20 -40 -59q-47 -46 -101 -56q0 55 51 106q45 45 72 45q18 0 18 -36zM367 197q-75 -56 -75 -161q-37 -25 -89 -25q-35 0 -57 20.5t-22 54.5q0 62 52 101q46 36 111 36l35 -7z" />
    <glyph glyph-name="Scaron" unicode="&#x160;" horiz-adv-x="730" 
d="M773 732q-30 14 -58 14q-92 0 -210 -57q-139 -67 -139 -145q0 -57 77 -98l141 -73q76 -52 76 -133q0 -97 -99 -154q-83 -48 -187 -48q-207 0 -267 116l-58 -33q83 -128 267 -128q143 0 268 83q138 93 138 212q0 81 -75 132l-138 69q-74 38 -74 79q0 59 68 91
q55 26 120 26q21 0 62 -6l34 -5q54 19 54 58zM838 925l-5 10l-43 -16l-92 -70q-32 54 -82 86l-4 -10q10 -16 19 -34.5t18 -39.5q11 -26 18 -43t11 -27h20q66 83 140 144z" />
    <glyph glyph-name="scaron" unicode="&#x161;" horiz-adv-x="257" 
d="M270 261q-5 23 -52 23q-22 0 -56 -27q-28 -23 -45 -46q29 -89 29 -144q0 -35 -44 -35q-35 0 -50 23l-9 40l-1 38l3 35l-62 -37l-3 -18l-1 -17l4 -41l4 -18q32 -38 81 -38q20 0 53 9l38 30q33 27 46 64l-10 61l-19 73l29 -6l29 -11q36 6 36 42zM417 489l-5 10l-43 -16
l-92 -70q-32 54 -82 86l-4 -10q10 -16 19 -34.5t18 -39.5q11 -26 18 -43t11 -27h20q66 83 140 144z" />
    <glyph glyph-name="Ydieresis" unicode="&#x178;" horiz-adv-x="976" 
d="M1035 539l-66 -12l-145 -275q-32 -60 -167 -143q-146 -90 -227 -90q-93 0 -93 101q0 131 125 286q105 129 261 231l9 14q4 5 4 15q-101 65 -245 65q-113 0 -208 -53q-119 -68 -111 -165l2 -25l47 22l-1 16q-5 82 81 129q67 36 164 36q56 0 104 -12q74 -18 77 -56
q-144 -73 -254 -216q-119 -158 -119 -307q0 -64 23 -95q25 -34 88 -34q78 0 208 68q54 29 100.5 60t84.5 65l-70 -156q-64 -13 -118.5 -33.5t-102.5 -48.5q-114 -68 -114 -134q0 -26 35 -41q27 -12 57 -12q151 0 303 248l94 20l90 26l12 18q-81 -26 -172 -26l96 209z
M691 -24q-23 -66 -85 -134q-71 -78 -130 -78q-27 0 -36 6q-13 7 -13 32q0 54 116 120q101 58 131 58zM1047 766q-4 31 -34 31q-16 0 -27.5 -10.5t-11.5 -26.5q0 -35 37 -35q15 0 25.5 12.5t10.5 28.5zM890 767q-2 33 -26 33q-18 0 -32.5 -14t-14.5 -32q0 -32 40 -32
q14 1 24 13q11 15 9 32z" />
    <glyph glyph-name="florin" unicode="&#x192;" horiz-adv-x="326" 
d="M542 476q-19 19 -64 33q-39 13 -71 13q-95 0 -140 -112l-147 -365l-15 -4q-21 0 -21 56q0 77 69 137l-39 10q-85 -66 -85 -158q0 -76 66 -82l-34 -93q-33 -90 -71 -90q-37 0 -67 68q-5 11 -10.5 28t-11.5 40l-37 -46l34 -54q42 -54 78 -54q58 0 88 27q25 22 50 81l35 80
l108 28q55 15 99 51q-47 -14 -91.5 -23t-89.5 -14l158 377q36 86 92 86q21 0 44 -29l26 -33l17 3q10 3 14 7q13 16 16 32z" />
    <glyph glyph-name="circumflex" unicode="&#x2c6;" horiz-adv-x="283" 
d="M391 580l-1 22l-61 120q-5 8 -14 8q-13 0 -20 -9l-129 -137l25 -12q23 12 67 49l45 37l70 -90z" />
    <glyph glyph-name="tilde" unicode="&#x2dc;" horiz-adv-x="324" 
d="M436 637h-24l-16 -30q-12 -15 -25 -15q-21 0 -67 18q-47 18 -66 18q-35 0 -54.5 -22t-19.5 -57l2 -15l22 3q12 41 37 41q21 0 69 -18t70 -18q72 0 72 95z" />
    <glyph glyph-name="endash" unicode="&#x2013;" horiz-adv-x="459" 
d="M459 115v37h-395v-37h395z" />
    <glyph glyph-name="emdash" unicode="&#x2014;" horiz-adv-x="1055" 
d="M1051 84v39h-1002v-39h1002z" />
    <glyph glyph-name="quoteleft" unicode="&#x2018;" horiz-adv-x="156" 
d="M250 639q0 16 -10 27.5t-25 11.5l-18 -4q7 55 53 84h-29q-76 -46 -76 -122q0 -53 42 -53q23 0 43 16.5t20 39.5z" />
    <glyph glyph-name="quoteright" unicode="&#x2019;" horiz-adv-x="131" 
d="M224 710q0 51 -47 49q-17 0 -28 -15.5t-11 -33.5q0 -32 29 -32q7 1 13.5 3t12.5 4q-7 -37 -52 -68l19 -16q64 52 64 109z" />
    <glyph glyph-name="quotesinglbase" unicode="&#x201a;" horiz-adv-x="131" 
d="M114 35q0 51 -47 49q-17 0 -28 -15.5t-11 -33.5q0 -32 29 -32q7 1 13.5 3t12.5 4q-7 -36 -52 -67l19 -16q64 52 64 108z" />
    <glyph glyph-name="quotedblleft" unicode="&#x201c;" horiz-adv-x="270" 
d="M396 779h-35q-65 -47 -65 -122q0 -21 13.5 -35.5t34.5 -14.5t34.5 16.5t13.5 38.5q0 14 -8 26t-21 12q-12 -1 -19 -5q7 56 52 84zM279 779h-35q-66 -42 -66 -114q0 -23 13 -41t35 -18q48 0 48 62q0 32 -34 32l-13 -5q6 56 52 84z" />
    <glyph glyph-name="quotedblright" unicode="&#x201d;" horiz-adv-x="273" 
d="M379 709q0 46 -43 46q-22 0 -36 -14.5t-14 -36.5q0 -39 38 -39q9 0 20 6q-4 -35 -45 -61l12 -21q15 7 27.5 20.5t21.5 29.5t14 34t5 36zM271 704q0 53 -42 53q-19 0 -33 -15.5t-14 -34.5q0 -16 8.5 -29t24.5 -10q17 3 25 7q-14 -36 -42 -57l9 -23q64 55 64 109z" />
    <glyph glyph-name="quotedblbase" unicode="&#x201e;" horiz-adv-x="273" 
d="M244 44q0 46 -43 46q-22 0 -36 -14.5t-14 -36.5q0 -39 38 -39q9 0 20 6q-5 -35 -45 -60l12 -21q15 7 27.5 20.5t21.5 29.5t14 34t5 35zM136 39q0 53 -42 53q-19 0 -33 -15.5t-14 -34.5q0 -16 8.5 -29t24.5 -10q17 3 25 7q-14 -35 -42 -56l9 -23q64 55 64 108z" />
    <glyph glyph-name="dagger" unicode="&#x2020;" horiz-adv-x="469" 
d="M529 502h-162l47 201l-62 -21l-39 -180h-159l-11 -45h156l-127 -487l37 -37l148 526h161z" />
    <glyph glyph-name="daggerdbl" unicode="&#x2021;" horiz-adv-x="430" 
d="M521 539h-150l61 229l-55 -8l-63 -221h-148l-10 -43h149l-76 -262h-147l-10 -43h143l-69 -235l51 14l73 221h152l10 43h-147l74 262h149z" />
    <glyph glyph-name="bullet" unicode="&#x2022;" horiz-adv-x="146" 
d="M160 215q-2 17 -11 28q-12 12 -28 12q-41 0 -41 -51q0 -36 42 -36q38 0 38 47z" />
    <glyph glyph-name="ellipsis" unicode="&#x2026;" horiz-adv-x="860" 
d="M752 41q0 40 -43 40q-20 0 -32.5 -13t-12.5 -33q0 -18 13.5 -30t31.5 -12q43 0 43 48zM462 41q0 40 -43 40q-20 0 -32.5 -13t-12.5 -33q0 -18 13.5 -30t31.5 -12q43 0 43 48zM172 41q0 40 -43 40q-20 0 -32.5 -13t-12.5 -33q0 -18 13.5 -30t31.5 -12q43 0 43 48z" />
    <glyph glyph-name="perthousand" unicode="&#x2030;" horiz-adv-x="1266" 
d="M1237 59q-31 -12 -64 -18l19 32q16 26 16 56q-1 7 -4.5 15.5t-8 15.5t-10.5 11.5t-12 4.5q-32 0 -53.5 -25t-21.5 -58q0 -30 16 -56q-38 -27 -90 -27q-30 0 -51.5 16t-21.5 45q0 60 45 102t105 42q37 0 68 -22l10 -2q33 4 33 28q-29 18 -41 21q-22 5 -62 5
q-77 0 -150 -46q-82 -52 -82 -125q0 -20 8.5 -36t22.5 -27.5t32.5 -17.5t39.5 -6q54 0 137 19q102 24 120 53zM515 578q-31 -12 -64 -18l18 24q18 30 18 60q0 16 -9.5 31t-25.5 15q-32 0 -54 -23t-22 -55q0 -30 16 -56q-40 -28 -96 -28q-69 0 -69 67q0 56 54 101
q47 40 86 40q17 0 49 -12l31 -12l10 -2q33 4 33 28q-44 26 -103 26q-74 0 -148 -47q-84 -54 -84 -124q0 -42 29 -65.5t71 -23.5q58 0 138 18q99 23 122 56zM666 754h-59l-253 -755h60zM857 59q-31 -12 -64 -18l19 32q16 26 16 56q-1 7 -4.5 15.5t-8 15.5t-10.5 11.5t-12 4.5
q-32 0 -53.5 -25t-21.5 -58q0 -30 16 -56q-38 -27 -90 -27q-30 0 -51.5 16t-21.5 45q0 60 45 102t105 42q37 0 68 -22l10 -2q33 4 33 28q-29 18 -41 21q-22 5 -62 5q-77 0 -150 -46q-82 -52 -82 -125q0 -20 8.5 -36t22.5 -27.5t32.5 -17.5t39.5 -6q54 0 137 19
q102 24 120 53zM1188 120q0 -41 -31 -50q-15 9 -15 29q0 13 10 34q10 22 20 22q16 -1 16 -35zM466 639q0 -41 -31 -50q-15 9 -15 29q0 19 7 34q9 22 23 22q16 -1 16 -35zM808 120q0 -41 -31 -50q-15 9 -15 29q0 13 10 34q10 22 20 22q16 -1 16 -35z" />
    <glyph glyph-name="guilsinglleft" unicode="&#x2039;" horiz-adv-x="275" 
d="M254 252h-55l-123 -96l72 -133l47 18l-68 121z" />
    <glyph glyph-name="guilsinglright" unicode="&#x203a;" horiz-adv-x="322" 
d="M227 135l-69 125l-56 -26l58 -111l-113 -100h51z" />
    <glyph glyph-name="trademark" unicode="&#x2122;" horiz-adv-x="864" 
d="M846 768q0 21 -17 21q-42 0 -81 -62q-56 -89 -81 -186q-35 -45 -79 -74q21 83 49 152q11 29 28 66t40 82l13 26l-5 2l-7 2q-14 -1 -23 -5l-8 -5l-70 -156q-22 -49 -85 -117q-72 -76 -116 -76q-32 5 -32 35q0 66 76 132l9 17l-36 -4q-80 -69 -80 -149q0 -53 47 -53
q51 0 119 65q58 55 87 111l-56 -177l13 -2l107 100l-7 -27l-2 -22q0 -52 45 -52q54 0 131 59l6 10l-62 -32q-35 -18 -54 -18q-29 5 -29 19q0 16 9 63l8 42q41 32 88 98q55 76 55 115zM504 785l-37 8l-36 3q-6 1 -12 1h-13q-59 0 -125 -24q-83 -30 -83 -88l26 7l-1 9
q0 35 76 54q57 15 106 13l40 -2l38 -6l13 12q5 5 8 13zM413 749l-29 -1l-67 -139q-16 -32 -34 -60t-38 -53q-57 -69 -107 -69q-48 0 -48 68q0 53 49 108l-34 -8q-42 -53 -42 -111q0 -74 65 -74q80 0 172 116q82 105 113 223zM820 755q0 -30 -36 -82q-14 -20 -28.5 -38
t-29.5 -34q15 67 48 122q26 44 39 44q7 0 7 -12z" />
    <glyph glyph-name="nonbreakingspace" unicode="&#xe002;" horiz-adv-x="500" 
 />
    <glyph glyph-name="minus" unicode="&#xe003;" horiz-adv-x="465" 
d="M473 232h-360l-25 -46h359z" />
    </font>
</defs>
</svg>
